<?xml version="1.0" encoding="utf-8"?>
<!-- Generator: Adobe Illustrator 24.0.2, SVG Export Plug-In . SVG Version: 6.00 Build 0)  -->
<svg version="1.1" id="Layer_1" xmlns="http://www.w3.org/2000/svg" xmlns:xlink="http://www.w3.org/1999/xlink" x="0px" y="0px"
	 viewBox="0 0 390.1 452.2" style="enable-background:new 0 0 390.1 452.2;" xml:space="preserve">
<g>
	<g>
		<g>
			<path style="fill:#F1F0EB;" d="M3.9,451.9c-1,0-1.8-0.8-1.8-1.8L0.3,2c0-0.5,0.2-0.9,0.5-1.2C1.1,0.4,1.5,0.3,2,0.3h386.1
				c1,0,1.8,0.8,1.8,1.8v448.2c0,1-0.8,1.8-1.8,1.8H3.9z"/>
			<g>
				<path style="fill:#CBC5BF;" d="M388.1,0.5c0.8,0,1.5,0.7,1.5,1.5v448.2c0,0.8-0.7,1.5-1.5,1.5H3.9c-0.8,0-1.5-0.7-1.5-1.5L0.5,2
					c0-0.4,0.2-0.8,0.4-1.1S1.6,0.5,2,0.5H388.1 M388.1,0H2C0.9,0,0,0.9,0,2l1.9,448.2c0,1.1,0.9,2,2,2h384.2c1.1,0,2-0.9,2-2V2
					C390.1,0.9,389.2,0,388.1,0L388.1,0z"/>
			</g>
		</g>
		<text transform="matrix(0.98 0 0 1 4.8541 11.008)" style="fill:#3F3A36; font-family:'OracleSans-ExtraBold'; font-size:8px;">Oracle Cloud Region</text>
	</g>
</g>
<g>
	<g>
		<path style="fill:#DFDCD8;" d="M331.4,439c0,1.1-0.9,2-2,2h-280c-1.1,0-2-0.9-2-2V32.2c0-1.1,0.9-2,2-2h280c1.1,0,2,0.9,2,2V439z"
			/>
		<path style="fill:none;stroke:#CBC5BF;stroke-width:0.5;stroke-miterlimit:10;" d="M331.4,439c0,1.1-0.9,2-2,2h-280
			c-1.1,0-2-0.9-2-2V32.2c0-1.1,0.9-2,2-2h280c1.1,0,2,0.9,2,2V439z"/>
	</g>
	<text transform="matrix(1 0 0 1 52.291 41.2309)" style="fill:#3F3A36; font-family:'OracleSans-Bold'; font-size:8px;">Availability</text>
</g>
<g>
	<g>
		<path style="fill:#FFFFFF;" d="M228.8,434.8c0,1.1-0.9,2-2,2h-75.3c-1.1,0-2-0.9-2-2V69.1c0-1.1,0.9-2,2-2h75.3c1.1,0,2,0.9,2,2
			V434.8z"/>
		<path style="fill:none;stroke:#CBC5BF;stroke-width:0.5;stroke-miterlimit:10;" d="M228.8,434.8c0,1.1-0.9,2-2,2h-75.3
			c-1.1,0-2-0.9-2-2V69.1c0-1.1,0.9-2,2-2h75.3c1.1,0,2,0.9,2,2V434.8z"/>
	</g>
	<text transform="matrix(1 0 0 1 179.7744 78.113)" style="fill:#3F3A36; font-family:'OracleSans-SemiBold'; font-size:8px;">Fault</text>
</g>
<g>
	<g>
		<path style="fill:#FFFFFF;" d="M129.3,434.2c0,1.1-0.9,2-2,2H54.6c-1.1,0-2-0.9-2-2v-365c0-1.1,0.9-2,2-2h72.8c1.1,0,2,0.9,2,2
			V434.2z"/>
		<path style="fill:none;stroke:#CBC5BF;stroke-width:0.5;stroke-miterlimit:10;" d="M129.3,434.2c0,1.1-0.9,2-2,2H54.6
			c-1.1,0-2-0.9-2-2v-365c0-1.1,0.9-2,2-2h72.8c1.1,0,2,0.9,2,2V434.2z"/>
	</g>
	<text transform="matrix(1 0 0 1 81.5244 78.113)" style="fill:#3F3A36; font-family:'OracleSans-SemiBold'; font-size:8px;">Fault </text>
</g>
<g>
	<g>
		<path style="fill:#FFFFFF;" d="M323.8,434.2c0,1.1-0.9,2-2,2h-72.7c-1.1,0-2-0.9-2-2v-365c0-1.1,0.9-2,2-2h72.7c1.1,0,2,0.9,2,2
			V434.2z"/>
		<path style="fill:none;stroke:#CBC5BF;stroke-width:0.5;stroke-miterlimit:10;" d="M323.8,434.2c0,1.1-0.9,2-2,2h-72.7
			c-1.1,0-2-0.9-2-2v-365c0-1.1,0.9-2,2-2h72.7c1.1,0,2,0.9,2,2V434.2z"/>
	</g>
	<text transform="matrix(1 0 0 1 276.0244 78.113)" style="fill:#3F3A36; font-family:'OracleSans-SemiBold'; font-size:8px;">Fault</text>
</g>
<g>
	<g>
		<g style="opacity:0.75;">
			<path style="fill:#FFFFFF;" d="M217.5,230c0,1.1-0.9,2-2,2H64.7c-1.1,0-2-0.9-2-2v-61.6c0-1.1,0.9-2,2-2h150.8c1.1,0,2,0.9,2,2
				V230z"/>
			<path style="fill:none;stroke:#56504B;stroke-width:0.5;stroke-miterlimit:10;stroke-dasharray:2,2;" d="M217.5,230
				c0,1.1-0.9,2-2,2H64.7c-1.1,0-2-0.9-2-2v-61.6c0-1.1,0.9-2,2-2h150.8c1.1,0,2,0.9,2,2V230z"/>
		</g>
		<text transform="matrix(1 0 0 1 67.7238 177.4261)" style="fill:#100F0E; font-family:'OracleSans-Light'; font-size:8px;">Load Balancer</text>
	</g>
</g>
<g>
	<g>
		<g>
			<g>
				<polyline style="fill:none;stroke:#AE562C;stroke-width:0.5;stroke-miterlimit:10;" points="375.8,443.5 375.8,446.5 
					372.8,446.5 				"/>
				
					<line style="fill:none;stroke:#AE562C;stroke-width:0.5;stroke-miterlimit:10;stroke-dasharray:6.0038,2.0013;" x1="370.8" y1="446.5" x2="11.6" y2="446.5"/>
				<polyline style="fill:none;stroke:#AE562C;stroke-width:0.5;stroke-miterlimit:10;" points="10.6,446.5 7.6,446.5 7.6,443.5 
									"/>
				
					<line style="fill:none;stroke:#AE562C;stroke-width:0.5;stroke-miterlimit:10;stroke-dasharray:5.9757,1.9919;" x1="7.6" y1="441.5" x2="7.6" y2="28.2"/>
				<polyline style="fill:none;stroke:#AE562C;stroke-width:0.5;stroke-miterlimit:10;" points="7.6,27.2 7.6,24.2 10.6,24.2 				
					"/>
				
					<line style="fill:none;stroke:#AE562C;stroke-width:0.5;stroke-miterlimit:10;stroke-dasharray:6.0038,2.0013;" x1="12.6" y1="24.2" x2="371.8" y2="24.6"/>
				<polyline style="fill:none;stroke:#AE562C;stroke-width:0.5;stroke-miterlimit:10;" points="372.8,24.6 375.8,24.6 375.8,27.6 
									"/>
				
					<line style="fill:none;stroke:#AE562C;stroke-width:0.5;stroke-miterlimit:10;stroke-dasharray:5.9709,1.9903;" x1="375.8" y1="29.5" x2="375.8" y2="442.5"/>
			</g>
		</g>
		<text transform="matrix(1 0 0 1 12.325 35.2355)" style="fill:#AE562C; font-family:'OracleSans-Bold'; font-size:8px;">VCN</text>
	</g>
</g>
<text transform="matrix(1 0 0 1 84.8181 225.0312)" style="fill:#100F0E; font-family:'OracleSans-Regular'; font-size:8px;">Active</text>
<text transform="matrix(1 0 0 1 168.0744 225.0312)" style="fill:#100F0E; font-family:'OracleSans-Regular'; font-size:8px;">Standby</text>
<line style="fill:none;stroke:#100F0E;stroke-width:0.5;stroke-miterlimit:10;" x1="112.5" y1="204.4" x2="169" y2="204.4"/>
<g id="XMLID_25_">
	<g>
		<g>
			<g>
				<g id="XMLID_26_">
					<g>
						<g style="opacity:0.75;">
							<path style="fill:#FFFFFF;" d="M317.1,424.4c0,1.1-0.9,2-2,2H60.2c-1.1,0-2-0.9-2-2V325c0-1.1,0.9-2,2-2h254.9
								c1.1,0,2,0.9,2,2V424.4z"/>
							<g>
								<path style="fill:#56504B;" d="M315.1,323h-2v0.5h2V323L315.1,323L315.1,323z M311.1,323h-2v0.5h2V323L311.1,323z
									 M307.1,323h-2v0.5h2V323L307.1,323z M303.1,323h-2v0.5h2V323L303.1,323z M299.1,323h-2v0.5h2V323L299.1,323z M295.1,323h-2
									v0.5h2V323L295.1,323z M291.1,323h-2v0.5h2V323L291.1,323z M287.1,323h-2v0.5h2V323L287.1,323z M283.1,323h-2v0.5h2V323
									L283.1,323z M279.1,323h-2v0.5h2V323L279.1,323z M275.1,323h-2v0.5h2V323L275.1,323z M271.1,323h-2v0.5h2V323L271.1,323z
									 M267.1,323h-2v0.5h2V323L267.1,323z M263.1,323h-2v0.5h2V323L263.1,323z M259.1,323h-2v0.5h2V323L259.1,323z M255.1,323h-2
									v0.5h2V323L255.1,323z M251.1,323h-2v0.5h2V323L251.1,323z M247.1,323h-2v0.5h2V323L247.1,323z M243.1,323h-2v0.5h2V323
									L243.1,323z M239.1,323h-2v0.5h2V323L239.1,323z M235.1,323h-2v0.5h2V323L235.1,323z M231.1,323h-2v0.5h2V323L231.1,323z
									 M227.1,323h-2v0.5h2V323L227.1,323z M223.1,323h-2v0.5h2V323L223.1,323z M219.1,323h-2v0.5h2V323L219.1,323z M215.1,323h-2
									v0.5h2V323L215.1,323z M211.1,323h-2v0.5h2V323L211.1,323z M207.1,323h-2v0.5h2V323L207.1,323z M203.1,323h-2v0.5h2V323
									L203.1,323z M199.1,323h-2v0.5h2V323L199.1,323z M195.1,323h-2v0.5h2V323L195.1,323z M191.1,323h-2v0.5h2V323L191.1,323z
									 M187.1,323h-2v0.5h2V323L187.1,323z M183.1,323h-2v0.5h2V323L183.1,323z M179.1,323h-2v0.5h2V323L179.1,323z M175.1,323h-2
									v0.5h2V323L175.1,323z M171.1,323h-2v0.5h2V323L171.1,323z M167.1,323h-2v0.5h2V323L167.1,323z M163.1,323h-2v0.5h2V323
									L163.1,323z M159.1,323h-2v0.5h2V323L159.1,323z M155.1,323h-2v0.5h2V323L155.1,323z M151.1,323h-2v0.5h2V323L151.1,323z
									 M147.1,323h-2v0.5h2V323L147.1,323z M143.1,323h-2v0.5h2V323L143.1,323z M139.1,323h-2v0.5h2V323L139.1,323z M135.1,323h-2
									v0.5h2V323L135.1,323z M131.1,323h-2v0.5h2V323L131.1,323z M127.1,323h-2v0.5h2V323L127.1,323z M123.1,323h-2v0.5h2V323
									L123.1,323z M119.1,323h-2v0.5h2V323L119.1,323z M115.1,323h-2v0.5h2V323L115.1,323z M111.1,323h-2v0.5h2V323L111.1,323z
									 M107.1,323h-2v0.5h2V323L107.1,323z M103.1,323h-2v0.5h2V323L103.1,323z M99.1,323h-2v0.5h2V323L99.1,323z M95.1,323h-2
									v0.5h2V323L95.1,323z M91.1,323h-2v0.5h2V323L91.1,323z M87.1,323h-2v0.5h2V323L87.1,323z M83.1,323h-2v0.5h2V323L83.1,323z
									 M79.1,323h-2v0.5h2V323L79.1,323z M75.1,323h-2v0.5h2V323L75.1,323z M71.1,323h-2v0.5h2V323L71.1,323z M67.1,323h-2v0.5h2
									V323L67.1,323z M63.1,323h-2v0.5h2V323L63.1,323z M59.1,323.3c-0.1,0-0.2,0.1-0.2,0.2c0,0,0,0,0,0c0,0,0,0,0,0c0,0,0,0,0,0
									c0,0,0,0,0,0c0,0,0,0,0,0c0,0,0,0,0,0c0,0,0,0,0,0c0,0,0,0,0,0c0,0,0,0,0,0c0,0,0,0,0,0c0,0,0,0,0,0c0,0,0,0,0,0
									c0,0,0,0,0,0c0,0,0,0,0,0c0,0,0,0,0,0c0,0,0,0,0,0c0,0,0,0,0,0c0,0,0,0,0,0c0,0,0,0,0,0c0,0,0,0,0,0c0,0,0,0,0,0
									c0,0,0,0,0,0c0,0,0,0,0,0c0,0,0,0,0,0c0,0,0,0,0,0c0,0,0,0,0,0c0,0,0,0,0,0c0,0,0,0,0,0c0,0,0,0,0,0c0,0,0,0,0,0
									c0,0,0,0,0,0c0,0,0,0,0,0c0,0,0,0,0,0c0,0,0,0,0,0c0,0,0,0,0,0c0,0,0,0,0,0c0,0,0,0,0,0c0,0,0,0,0,0c0,0,0,0,0,0
									c0,0,0,0,0,0c0,0,0,0,0,0c0,0,0,0,0,0c0,0,0,0,0,0c0,0,0,0,0,0c0,0,0,0,0,0c0,0,0,0,0,0c0,0,0,0,0,0c0,0,0,0,0,0
									c0,0,0,0,0,0c0,0,0,0,0,0c0,0,0,0,0,0c0,0,0,0,0,0c0,0,0,0,0,0c0,0,0,0,0,0c0,0,0,0,0,0c0,0,0,0,0,0c0,0,0,0,0,0
									c0,0,0,0,0,0c0,0,0,0,0,0c0,0,0,0,0,0c0,0,0,0,0,0c0,0,0,0,0,0c0,0,0,0,0,0c0,0,0,0,0,0c0,0,0,0,0,0l0,0c0,0,0,0,0,0
									c0,0,0,0,0,0c0,0,0,0,0,0c0,0,0,0,0,0c0,0,0,0,0,0c0,0,0,0,0,0c0,0,0,0,0,0c0,0,0,0,0,0c0,0,0,0,0,0l0,0c0,0,0,0,0,0
									c0,0,0,0,0,0c0,0,0,0,0,0c0,0,0,0,0,0c0,0,0,0,0,0c0,0,0,0,0,0c0,0,0,0,0,0c0,0,0,0,0,0c0,0,0,0,0,0c0,0,0,0,0,0
									c0,0,0,0,0,0c0,0,0,0,0,0c0,0,0,0,0,0c0,0,0,0,0,0c0,0,0,0,0,0c0,0,0,0,0,0c0,0,0,0,0,0c0,0,0,0,0,0c0,0,0,0,0,0
									c0,0,0,0,0,0c0,0,0,0,0,0c0,0,0,0,0,0c0,0,0,0,0,0c0,0,0,0,0,0c0,0,0,0,0,0c0,0,0,0,0,0c0,0,0,0,0,0c0,0,0,0,0,0
									c0,0,0,0,0,0c0,0,0,0,0,0c0,0,0,0,0,0c0,0,0,0,0,0c0,0,0,0,0,0c0,0,0,0,0,0c0,0,0,0,0,0c0,0,0,0,0,0c0,0,0,0,0,0
									c0,0,0,0,0,0c0,0,0,0,0,0c0,0,0,0,0,0c0,0,0,0,0,0c0,0,0,0,0,0c0,0,0,0,0,0c0,0,0,0,0,0c0,0,0,0,0,0c0,0,0,0,0,0
									c0,0,0,0,0,0c0,0,0,0,0,0c0,0,0,0,0,0c0,0,0,0,0,0c0,0,0,0,0,0c0,0,0,0,0,0c0,0,0,0,0,0c0,0,0,0,0,0c0,0,0,0,0,0
									c0,0,0,0,0,0c0,0,0,0,0,0c0,0,0,0,0,0c0,0,0,0,0,0c0,0,0,0,0,0c0,0,0,0,0,0c0,0,0,0,0,0c0,0,0,0,0,0c0,0,0,0,0,0
									c0,0,0,0,0,0c0,0,0,0,0,0c0,0,0,0,0,0c0,0,0,0,0,0c0,0,0,0,0,0c0,0,0,0,0,0c0,0,0,0,0,0c0,0,0,0,0,0c0,0,0,0,0,0
									c0,0,0,0,0,0c0,0,0,0,0,0c0,0,0,0,0,0c0,0,0,0,0,0c0,0,0,0,0,0c0,0,0,0,0,0c0,0,0,0,0,0c0,0,0,0,0,0c0,0,0,0,0,0
									c0,0,0,0,0,0c0,0,0,0,0,0c0,0,0,0,0,0c0,0,0,0,0,0c0,0,0,0,0,0c0,0,0,0,0,0c0,0,0,0,0,0c0,0,0,0,0,0c0,0,0,0,0,0
									c0,0,0,0,0,0c0,0,0,0,0,0c0,0,0,0,0,0c0,0,0,0,0,0c0,0,0,0,0,0c0,0,0,0,0,0c0,0,0,0,0,0s0,0,0,0c0,0,0,0,0,0c0,0,0,0,0,0
									c0,0,0,0,0,0c0,0,0,0,0,0c0,0,0,0,0,0c0,0,0,0,0,0c0,0,0,0,0,0c0,0,0,0,0,0c0,0,0,0,0,0c0,0,0,0,0,0c0,0,0,0,0,0
									c0,0,0,0,0,0c0,0,0,0,0,0c0,0,0,0,0,0c0,0,0,0,0,0c0,0,0,0,0,0c0,0,0,0,0,0c0,0,0,0,0,0c0,0,0,0,0,0c0,0,0,0,0,0
									c0,0,0,0,0,0c0,0,0,0,0,0c0,0,0,0,0,0c0,0,0,0,0,0c0,0,0,0,0,0c0,0,0,0,0,0c0,0,0,0,0,0c0,0,0,0,0,0c0,0,0,0,0,0
									c0,0,0,0,0,0c0,0,0,0,0,0c0,0,0,0,0,0c0,0,0,0,0,0c0,0,0,0,0,0c0,0,0,0,0,0c0,0,0,0,0,0c0,0,0,0,0,0c0,0,0,0,0,0
									c0,0,0,0,0,0c0,0,0,0,0,0c0,0,0,0,0,0c0,0,0,0,0,0c0,0,0,0,0,0c0,0,0,0,0,0c0,0,0,0,0,0c0,0,0,0,0,0c0,0,0,0,0,0
									c0,0,0,0,0,0c0,0,0,0,0,0c0,0,0,0,0,0c0,0,0,0,0,0c0,0,0,0,0,0c0,0,0,0,0,0c0,0,0,0,0,0c0,0,0,0,0,0c0,0,0,0,0,0
									c0,0,0,0,0,0c0,0,0,0,0,0c-0.1,0.1-0.1,0.3-0.2,0.4c0,0,0,0,0,0c0,0,0,0,0,0c0,0,0,0,0,0c0,0,0,0,0,0c0,0,0,0,0,0
									c0,0,0,0,0,0c0,0,0,0,0,0c0,0,0,0,0,0c0,0,0,0,0,0c0,0,0,0,0,0c0,0,0,0,0,0c0,0,0,0,0,0c0,0,0,0,0,0c0,0,0,0,0,0
									c0,0,0,0,0,0c0,0,0,0,0,0c0,0,0,0,0,0c0,0,0,0,0,0c0,0,0,0,0,0c0,0,0,0,0,0c0,0,0,0,0,0c0,0,0,0,0,0c0,0,0,0,0,0
									c0,0,0,0,0,0c0,0,0,0,0,0c0,0,0,0,0,0c0,0,0,0,0,0c0,0,0,0,0,0c0,0,0,0,0,0c0,0,0,0,0,0c0,0,0,0,0,0c0,0,0,0,0,0
									c0,0,0,0,0,0c0,0,0,0,0,0c0,0,0,0,0,0c0,0,0,0,0,0c0,0,0,0,0,0c0,0,0,0,0,0c0,0,0,0,0,0c0,0,0,0,0,0c0,0,0,0,0,0
									c0,0,0,0,0,0c0,0,0,0,0,0c0,0,0,0,0,0c0,0,0,0,0,0c0,0,0,0,0,0c0,0,0,0,0,0c0,0,0,0,0,0c0,0,0,0,0,0c0,0,0,0,0,0
									c0,0,0,0,0,0c0,0,0,0,0,0c0,0,0,0,0,0c0,0,0,0,0,0c0,0,0,0,0,0c0,0,0,0,0,0c0,0.1,0,0.2,0,0.3l0.5,0c0-0.5,0.3-1,0.7-1.3
									L59.1,323.3L59.1,323.3z M58.7,326.9h-0.5v2h0.5V326.9L58.7,326.9z M58.7,330.9h-0.5v2h0.5V330.9L58.7,330.9z M58.7,334.9
									h-0.5v2h0.5V334.9L58.7,334.9z M58.7,338.9h-0.5v2h0.5V338.9L58.7,338.9z M58.7,342.9h-0.5v2h0.5V342.9L58.7,342.9z
									 M58.7,346.9h-0.5v2h0.5V346.9L58.7,346.9z M58.7,350.9h-0.5v2h0.5V350.9L58.7,350.9z M58.7,354.9h-0.5v2h0.5V354.9
									L58.7,354.9z M58.7,358.9h-0.5v2h0.5V358.9L58.7,358.9z M58.7,362.9h-0.5v2h0.5V362.9L58.7,362.9z M58.7,366.9h-0.5v2h0.5
									V366.9L58.7,366.9z M58.7,370.9h-0.5v2h0.5V370.9L58.7,370.9z M58.7,374.9h-0.5v2h0.5V374.9L58.7,374.9z M58.7,378.9h-0.5v2
									h0.5V378.9L58.7,378.9z M58.7,382.9h-0.5v2h0.5V382.9L58.7,382.9z M58.7,386.9h-0.5v2h0.5V386.9L58.7,386.9z M58.7,390.9
									h-0.5v2h0.5V390.9L58.7,390.9z M58.7,394.9h-0.5v2h0.5V394.9L58.7,394.9z M58.7,398.9h-0.5v2h0.5V398.9L58.7,398.9z
									 M58.7,402.9h-0.5v2h0.5V402.9L58.7,402.9z M58.7,406.9h-0.5v2h0.5V406.9L58.7,406.9z M58.7,410.9h-0.5v2h0.5V410.9
									L58.7,410.9z M58.7,414.9h-0.5v2h0.5V414.9L58.7,414.9z M58.7,418.9h-0.5v2h0.5V418.9L58.7,418.9z M58.7,422.9h-0.5v1.5l0,0
									c0,0,0,0,0,0c0,0,0,0,0,0c0,0,0,0,0,0c0,0,0,0,0,0c0,0,0,0,0,0c0,0,0,0,0,0c0,0,0,0,0,0c0,0,0,0,0,0c0,0,0,0,0,0
									c0,0,0,0,0,0c0,0,0,0,0,0c0,0,0,0,0,0c0,0,0,0,0,0c0,0,0,0,0,0c0,0,0,0,0,0c0,0,0,0,0,0c0,0,0,0,0,0c0,0,0,0,0,0
									c0,0,0,0,0,0c0,0,0,0,0,0c0,0,0,0,0,0c0,0,0,0,0,0c0,0,0,0,0,0c0,0,0,0,0,0c0,0,0,0,0,0c0,0,0,0,0,0c0,0,0,0,0,0
									c0,0,0,0,0,0c0,0,0,0,0,0l0,0c0,0.1,0,0.2,0,0.2c0,0,0,0,0,0c0,0,0,0,0,0c0,0,0,0,0,0c0,0,0,0,0,0c0,0,0,0,0,0c0,0,0,0,0,0
									c0,0,0,0,0,0c0,0,0,0,0,0c0,0,0,0,0,0c0,0,0,0,0,0c0,0,0,0,0,0c0,0,0,0,0,0c0,0,0,0,0,0c0,0,0,0,0,0c0,0,0,0,0,0
									c0,0,0,0,0,0c0,0,0,0.1,0,0.1l0.5-0.1c0-0.1-0.1-0.3-0.1-0.4V422.9L58.7,422.9z M59.8,425.8l-0.2,0.5c0.1,0,0.3,0.1,0.5,0.1
									c0,0,0,0,0,0c0,0,0,0,0,0c0,0,0,0,0,0c0,0,0,0,0,0l0,0c0,0,0,0,0,0c0,0,0,0,0,0c0,0,0,0,0,0c0,0,0,0,0,0c0,0,0,0,0,0
									c0,0,0,0,0,0c0,0,0,0,0,0c0,0,0,0,0,0c0,0,0,0,0,0c0,0,0,0,0,0c0,0,0,0,0,0c0,0,0,0,0,0c0,0,0,0,0,0c0,0,0,0,0,0
									c0,0,0,0,0,0c0,0,0,0,0,0c0,0,0,0,0,0c0,0,0,0,0,0c0,0,0,0,0,0c0,0,0,0,0,0c0,0,0,0,0,0c0,0,0,0,0,0c0,0,0,0,0,0
									c0,0,0,0,0,0c0,0,0,0,0,0c0,0,0,0,0,0c0,0,0,0,0,0c0,0,0,0,0,0c0,0,0,0,0,0c0,0,0,0,0,0c0,0,0,0,0,0c0,0,0,0,0,0
									c0,0,0,0,0,0c0,0,0,0,0,0c0,0,0,0,0,0l0,0h1.4v-0.5h-1.4C60.1,425.9,59.9,425.9,59.8,425.8L59.8,425.8z M65.6,425.9h-2v0.5
									h2V425.9L65.6,425.9z M69.6,425.9h-2v0.5h2V425.9L69.6,425.9z M73.6,425.9h-2v0.5h2V425.9L73.6,425.9z M77.6,425.9h-2v0.5h2
									V425.9L77.6,425.9z M81.6,425.9h-2v0.5h2V425.9L81.6,425.9z M85.6,425.9h-2v0.5h2V425.9L85.6,425.9z M89.6,425.9h-2v0.5h2
									V425.9L89.6,425.9z M93.6,425.9h-2v0.5h2V425.9L93.6,425.9z M97.6,425.9h-2v0.5h2V425.9L97.6,425.9z M101.6,425.9h-2v0.5h2
									V425.9L101.6,425.9z M105.6,425.9h-2v0.5h2V425.9L105.6,425.9z M109.6,425.9h-2v0.5h2V425.9L109.6,425.9z M113.6,425.9h-2
									v0.5h2V425.9L113.6,425.9z M117.6,425.9h-2v0.5h2V425.9L117.6,425.9z M121.6,425.9h-2v0.5h2V425.9L121.6,425.9z
									 M125.6,425.9h-2v0.5h2V425.9L125.6,425.9z M129.6,425.9h-2v0.5h2V425.9L129.6,425.9z M133.6,425.9h-2v0.5h2V425.9
									L133.6,425.9z M137.6,425.9h-2v0.5h2V425.9L137.6,425.9z M141.6,425.9h-2v0.5h2V425.9L141.6,425.9z M145.6,425.9h-2v0.5h2
									V425.9L145.6,425.9z M149.6,425.9h-2v0.5h2V425.9L149.6,425.9z M153.6,425.9h-2v0.5h2V425.9L153.6,425.9z M157.6,425.9h-2
									v0.5h2V425.9L157.6,425.9z M161.6,425.9h-2v0.5h2V425.9L161.6,425.9z M165.6,425.9h-2v0.5h2V425.9L165.6,425.9z
									 M169.6,425.9h-2v0.5h2V425.9L169.6,425.9z M173.6,425.9h-2v0.5h2V425.9L173.6,425.9z M177.6,425.9h-2v0.5h2V425.9
									L177.6,425.9z M181.6,425.9h-2v0.5h2V425.9L181.6,425.9z M185.6,425.9h-2v0.5h2V425.9L185.6,425.9z M189.6,425.9h-2v0.5h2
									V425.9L189.6,425.9z M193.6,425.9h-2v0.5h2V425.9L193.6,425.9z M197.6,425.9h-2v0.5h2V425.9L197.6,425.9z M201.6,425.9h-2
									v0.5h2V425.9L201.6,425.9z M205.6,425.9h-2v0.5h2V425.9L205.6,425.9z M209.6,425.9h-2v0.5h2V425.9L209.6,425.9z
									 M213.6,425.9h-2v0.5h2V425.9L213.6,425.9z M217.6,425.9h-2v0.5h2V425.9L217.6,425.9z M221.6,425.9h-2v0.5h2V425.9
									L221.6,425.9z M225.6,425.9h-2v0.5h2V425.9L225.6,425.9z M229.6,425.9h-2v0.5h2V425.9L229.6,425.9z M233.6,425.9h-2v0.5h2
									V425.9L233.6,425.9z M237.6,425.9h-2v0.5h2V425.9L237.6,425.9z M241.6,425.9h-2v0.5h2V425.9L241.6,425.9z M245.6,425.9h-2
									v0.5h2V425.9L245.6,425.9z M249.6,425.9h-2v0.5h2V425.9L249.6,425.9z M253.6,425.9h-2v0.5h2V425.9L253.6,425.9z
									 M257.6,425.9h-2v0.5h2V425.9L257.6,425.9z M261.6,425.9h-2v0.5h2V425.9L261.6,425.9z M265.6,425.9h-2v0.5h2V425.9
									L265.6,425.9z M269.6,425.9h-2v0.5h2V425.9L269.6,425.9z M273.6,425.9h-2v0.5h2V425.9L273.6,425.9z M277.6,425.9h-2v0.5h2
									V425.9L277.6,425.9z M281.6,425.9h-2v0.5h2V425.9L281.6,425.9z M285.6,425.9h-2v0.5h2V425.9L285.6,425.9z M289.6,425.9h-2
									v0.5h2V425.9L289.6,425.9z M293.6,425.9h-2v0.5h2V425.9L293.6,425.9z M297.6,425.9h-2v0.5h2V425.9L297.6,425.9z
									 M301.6,425.9h-2v0.5h2V425.9L301.6,425.9z M305.6,425.9h-2v0.5h2V425.9L305.6,425.9z M309.6,425.9h-2v0.5h2V425.9
									L309.6,425.9z M313.6,425.9h-2v0.5h2V425.9L313.6,425.9z M316.5,424.9c-0.2,0.5-0.6,0.9-1,1l0.1,0.5
									c0.7-0.2,1.2-0.7,1.4-1.3L316.5,424.9L316.5,424.9z M317.1,421.1h-0.5v2h0.5V421.1L317.1,421.1z M317.1,417.1h-0.5v2h0.5
									V417.1L317.1,417.1z M317.1,413.1h-0.5v2h0.5V413.1L317.1,413.1z M317.1,409.1h-0.5v2h0.5V409.1L317.1,409.1z M317.1,405.1
									h-0.5v2h0.5V405.1L317.1,405.1z M317.1,401.1h-0.5v2h0.5V401.1L317.1,401.1z M317.1,397.1h-0.5v2h0.5V397.1L317.1,397.1z
									 M317.1,393.1h-0.5v2h0.5V393.1L317.1,393.1z M317.1,389.1h-0.5v2h0.5V389.1L317.1,389.1z M317.1,385.1h-0.5v2h0.5V385.1
									L317.1,385.1z M317.1,381.1h-0.5v2h0.5V381.1L317.1,381.1z M317.1,377.1h-0.5v2h0.5V377.1L317.1,377.1z M317.1,373.1h-0.5v2
									h0.5V373.1L317.1,373.1z M317.1,369.1h-0.5v2h0.5V369.1L317.1,369.1z M317.1,365.1h-0.5v2h0.5V365.1L317.1,365.1z
									 M317.1,361.1h-0.5v2h0.5V361.1L317.1,361.1z M317.1,357.1h-0.5v2h0.5V357.1L317.1,357.1z M317.1,353.1h-0.5v2h0.5V353.1
									L317.1,353.1z M317.1,349.1h-0.5v2h0.5V349.1L317.1,349.1z M317.1,345.1h-0.5v2h0.5V345.1L317.1,345.1z M317.1,341.1h-0.5v2
									h0.5V341.1L317.1,341.1z M317.1,337.1h-0.5v2h0.5V337.1L317.1,337.1z M317.1,333.1h-0.5v2h0.5V333.1L317.1,333.1z
									 M317.1,329.1h-0.5v2h0.5V329.1L317.1,329.1z M317.1,325.1h-0.5v2h0.5V325.1L317.1,325.1z M315.1,323v0.5
									c0.3,0,0.6,0.1,0.9,0.3l0.3-0.4c0,0,0,0,0,0c0,0,0,0,0,0c0,0,0,0,0,0c0,0,0,0,0,0c0,0,0,0,0,0c0,0,0,0,0,0c0,0,0,0,0,0
									c0,0,0,0,0,0c0,0,0,0,0,0c0,0,0,0,0,0c0,0,0,0,0,0l0,0c0,0,0,0,0,0c0,0,0,0,0,0c0,0,0,0,0,0c0,0,0,0,0,0c0,0,0,0,0,0
									c0,0,0,0,0,0c-0.2-0.1-0.4-0.2-0.6-0.3c0,0,0,0,0,0c0,0,0,0,0,0c0,0,0,0,0,0c0,0,0,0,0,0c0,0,0,0,0,0c0,0,0,0,0,0
									c0,0,0,0,0,0c0,0,0,0,0,0c0,0,0,0,0,0c0,0,0,0,0,0c0,0,0,0,0,0c0,0,0,0,0,0c0,0,0,0,0,0c0,0,0,0,0,0c0,0,0,0,0,0
									c0,0,0,0,0,0c0,0,0,0,0,0c0,0,0,0,0,0c0,0,0,0,0,0c0,0,0,0,0,0c0,0,0,0,0,0c0,0,0,0,0,0c0,0,0,0,0,0c0,0,0,0,0,0
									c0,0,0,0,0,0c0,0,0,0,0,0c0,0,0,0,0,0c0,0,0,0,0,0c0,0,0,0,0,0c0,0,0,0,0,0c0,0,0,0,0,0c0,0,0,0,0,0c0,0,0,0,0,0
									c0,0,0,0,0,0c0,0,0,0,0,0c0,0,0,0,0,0c0,0,0,0,0,0c0,0,0,0,0,0c0,0,0,0,0,0c0,0,0,0,0,0c0,0,0,0,0,0c0,0,0,0,0,0
									c0,0,0,0,0,0c0,0,0,0,0,0c0,0,0,0,0,0c0,0,0,0,0,0c0,0,0,0,0,0c0,0,0,0,0,0s0,0,0,0c0,0,0,0,0,0c0,0,0,0,0,0c0,0,0,0,0,0
									c0,0,0,0,0,0c0,0,0,0,0,0c0,0,0,0,0,0c0,0,0,0,0,0c0,0,0,0,0,0c0,0,0,0,0,0c0,0,0,0,0,0c0,0,0,0,0,0c0,0,0,0,0,0
									c0,0,0,0,0,0c0,0,0,0,0,0c0,0,0,0,0,0c0,0,0,0,0,0c0,0,0,0,0,0c0,0,0,0,0,0c0,0,0,0,0,0c0,0,0,0,0,0c0,0,0,0,0,0
									c0,0,0,0,0,0c0,0,0,0,0,0c0,0,0,0,0,0c0,0,0,0,0,0c0,0,0,0,0,0c0,0,0,0,0,0c0,0,0,0,0,0c0,0,0,0,0,0c0,0,0,0,0,0
									c0,0,0,0,0,0c0,0,0,0,0,0c0,0,0,0,0,0c0,0,0,0,0,0c0,0,0,0,0,0c0,0,0,0,0,0c0,0,0,0,0,0c0,0,0,0,0,0c0,0,0,0,0,0
									c0,0,0,0,0,0c0,0,0,0,0,0c0,0,0,0,0,0c0,0,0,0,0,0c0,0,0,0,0,0c0,0,0,0,0,0c0,0,0,0,0,0c0,0,0,0,0,0c0,0,0,0,0,0
									c0,0,0,0,0,0c0,0,0,0,0,0c0,0,0,0,0,0c0,0,0,0,0,0c0,0,0,0,0,0c0,0,0,0,0,0c0,0,0,0,0,0c0,0,0,0,0,0c0,0,0,0,0,0
									c0,0,0,0,0,0c0,0,0,0,0,0c0,0,0,0,0,0c0,0,0,0,0,0C315.2,323,315.2,323,315.1,323C315.2,323,315.2,323,315.1,323
									C315.2,323,315.2,323,315.1,323C315.2,323,315.2,323,315.1,323C315.2,323,315.2,323,315.1,323
									C315.2,323,315.2,323,315.1,323C315.2,323,315.2,323,315.1,323C315.2,323,315.2,323,315.1,323
									C315.2,323,315.2,323,315.1,323C315.2,323,315.2,323,315.1,323C315.2,323,315.2,323,315.1,323
									C315.1,323,315.1,323,315.1,323C315.1,323,315.1,323,315.1,323C315.1,323,315.1,323,315.1,323
									C315.1,323,315.1,323,315.1,323C315.1,323,315.1,323,315.1,323C315.1,323,315.1,323,315.1,323
									C315.1,323,315.1,323,315.1,323C315.1,323,315.1,323,315.1,323C315.1,323,315.1,323,315.1,323
									C315.1,323,315.1,323,315.1,323C315.1,323,315.1,323,315.1,323C315.1,323,315.1,323,315.1,323
									C315.1,323,315.1,323,315.1,323C315.1,323,315.1,323,315.1,323C315.1,323,315.1,323,315.1,323
									C315.1,323,315.1,323,315.1,323C315.1,323,315.1,323,315.1,323C315.1,323,315.1,323,315.1,323
									C315.1,323,315.1,323,315.1,323C315.1,323,315.1,323,315.1,323L315.1,323z"/>
							</g>
						</g>
						
							<text transform="matrix(1 0 0 1 244.5091 333.9721)" style="fill:#100F0E; font-family:'OracleSans-Regular'; font-size:8px;">MySQL DB System</text>
					</g>
				</g>
			</g>
		</g>
	</g>
</g>
<line style="fill:none;stroke:#100F0E;stroke-width:0.5;stroke-miterlimit:10;" x1="108.9" y1="275.3" x2="170" y2="275.3"/>
<g>
	<g>
		<line style="fill:none;stroke:#100F0E;stroke-width:0.5;stroke-miterlimit:10;" x1="113" y1="356.9" x2="261.1" y2="356.9"/>
		<g>
			<polygon style="fill:#100F0E;" points="114.4,358.7 113.6,356.9 114.4,355 110,356.9 			"/>
		</g>
		<g>
			<polygon style="fill:#100F0E;" points="264.6,356.9 259.7,358.9 260.8,356.9 259.7,354.8 			"/>
		</g>
	</g>
</g>
<line style="fill:none;stroke:#100F0E;stroke-width:0.5;stroke-miterlimit:10;" x1="90.9" y1="301.5" x2="90.9" y2="342.5"/>
<polyline style="fill:none;stroke:#100F0E;stroke-width:0.5;stroke-miterlimit:10;" points="101.9,335.4 187.2,335.4 187.2,301.9 
	"/>
<g>
	<g>
		<polyline style="fill:none;stroke:#100F0E;stroke-width:0.5;stroke-miterlimit:10;" points="113.5,370.1 159.3,370.1 159.3,399.6 
			167.6,399.6 		"/>
		<g>
			<polygon style="fill:#100F0E;" points="110,370.1 115,372.1 113.8,370.1 115,368 			"/>
		</g>
		<g>
			<polygon style="fill:#100F0E;" points="171.2,399.6 166.2,401.6 167.4,399.6 166.2,397.5 			"/>
		</g>
	</g>
</g>
<g>
	<g>
		<polyline style="fill:none;stroke:#100F0E;stroke-width:0.5;stroke-miterlimit:10;" points="261.3,370.1 218.3,370.1 218.3,399.6 
			210.7,399.6 		"/>
		<g>
			<polygon style="fill:#100F0E;" points="264.8,370.1 259.8,368 261,370.1 259.8,372.1 			"/>
		</g>
		<g>
			<polygon style="fill:#100F0E;" points="207.2,399.6 212.1,397.5 211,399.6 212.1,401.6 			"/>
		</g>
	</g>
</g>
<polyline style="fill:none;stroke:#100F0E;stroke-width:0.5;stroke-miterlimit:10;" points="169.3,199.4 139.9,199.4 139.9,57.8 "/>
<g>
	<polygon style="fill:#FFFFFF;" points="100.7,205.4 101.8,204.8 105.8,202.5 106.9,201.9 105.8,201.2 101.8,198.9 100.7,198.3 
		100.7,199.5 100.7,200.2 94.5,200.2 100.2,191.9 100.7,192.2 101.7,193 101.8,191.7 102.2,187.1 102.3,185.8 101.1,186.4 97,188.4 
		95.8,188.9 96.9,189.6 97.4,190 93.3,196 93.3,187.3 93.3,186.5 92.6,186.5 79.6,186.5 78.9,186.5 78.9,187.3 78.9,200.2 
		75.8,200.2 75,200.2 75,200.9 75,202.8 75,203.5 75.8,203.5 78.9,203.5 78.9,216.6 78.9,217.4 79.6,217.4 92.6,217.4 93.3,217.4 
		93.3,216.6 93.3,207.7 97.3,213.6 96.8,214 95.7,214.7 96.9,215.2 101,217.2 102.2,217.8 102.1,216.5 101.7,211.9 101.7,210.7 
		100.6,211.4 100.1,211.7 94.5,203.5 100.7,203.5 100.7,204.2 	"/>
	<path style="fill:#2C5967;" d="M105.4,201.9l-4-2.3v1.4h-8.3l6.9-10.1l1.1,0.8l0.3-4.6l-4.2,2l1.1,0.8l-5.9,8.6v-11.1H79.6v13.7
		h-3.9v1.8h3.9v13.9h12.9v-11.3l5.8,8.5l-1.1,0.8l4.2,2L101,212l-1.1,0.8l-6.8-10h8.3v1.4L105.4,201.9z M91.8,215.9H80.4v-13.1h5.5
		v1.4l4-2.3l-4-2.3v1.4h-5.5V188h11.5V215.9z"/>
</g>
<g>
	<polygon style="fill:#FFFFFF;" points="197.7,205.4 198.8,204.8 202.8,202.5 203.9,201.9 202.8,201.2 198.8,198.9 197.7,198.3 
		197.7,199.5 197.7,200.2 191.5,200.2 197.2,191.9 197.7,192.2 198.7,193 198.8,191.7 199.2,187.1 199.3,185.8 198.1,186.4 
		194,188.4 192.8,188.9 193.9,189.6 194.4,190 190.3,196 190.3,187.3 190.3,186.5 189.6,186.5 176.6,186.5 175.9,186.5 175.9,187.3 
		175.9,200.2 172.8,200.2 172,200.2 172,200.9 172,202.8 172,203.5 172.8,203.5 175.9,203.5 175.9,216.6 175.9,217.4 176.6,217.4 
		189.6,217.4 190.3,217.4 190.3,216.6 190.3,207.7 194.3,213.6 193.8,214 192.7,214.7 193.9,215.2 198,217.2 199.2,217.8 
		199.1,216.5 198.7,211.9 198.7,210.7 197.6,211.4 197.1,211.7 191.5,203.5 197.7,203.5 197.7,204.2 	"/>
	<path style="fill:#BEB397;" d="M202.4,201.9l-4-2.3v1.4h-8.3l6.9-10.1l1.1,0.8l0.3-4.6l-4.2,2l1.1,0.8l-5.9,8.6v-11.1h-12.9v13.7
		h-3.9v1.8h3.9v13.9h12.9v-11.3l5.8,8.5l-1.1,0.8l4.2,2L198,212l-1.1,0.8l-6.8-10h8.3v1.4L202.4,201.9z M188.8,215.9h-11.5v-13.1
		h5.5v1.4l4-2.3l-4-2.3v1.4h-5.5V188h11.5V215.9z"/>
</g>
<g>
	<path style="fill:#FFFFFF;" d="M386.9,24.6c0-1.9-1.5-3.4-3.4-3.4c-0.5,0-1.1,0.1-1.6,0.4l-3.3-2.4c0-0.1,0-0.3,0-0.4
		c0-1.9-1.5-3.4-3.4-3.4c-1.9,0-3.4,1.5-3.4,3.4c0,0.2,0,0.4,0,0.5l-3.1,2.3c-0.5-0.2-1-0.3-1.5-0.3c-1.9,0-3.4,1.5-3.4,3.4
		c0,1.7,1.2,3,2.8,3.3l1.2,3.6c-0.7,0.6-1.1,1.6-1.1,2.5c0,1.9,1.5,3.4,3.4,3.4c1.2,0,2.4-0.7,3-1.8h4.5c0.6,1.1,1.7,1.8,3,1.8
		c1.9,0,3.4-1.5,3.4-3.4c0-1-0.4-1.9-1.2-2.6L384,28C385.6,27.7,386.9,26.3,386.9,24.6z"/>
	<path style="fill:#67605B;" d="M386.4,24.6c0-1.6-1.3-2.9-2.9-2.9c-0.6,0-1.1,0.2-1.6,0.5l-3.8-2.8c0-0.2,0.1-0.4,0.1-0.6
		c0-1.6-1.3-2.9-2.9-2.9s-2.9,1.3-2.9,2.9c0,0.3,0,0.5,0.1,0.7l-3.6,2.7c-0.4-0.3-1-0.4-1.5-0.4c-1.6,0-2.9,1.3-2.9,2.9
		c0,1.5,1.2,2.7,2.6,2.8l1.4,4.2c-0.7,0.5-1.2,1.4-1.2,2.3c0,1.6,1.3,2.9,2.9,2.9c1.2,0,2.2-0.7,2.7-1.8h5.2c0.4,1,1.4,1.8,2.7,1.8
		c1.6,0,2.9-1.3,2.9-2.9c0-1-0.5-1.9-1.3-2.4l1.4-4.2C385.1,27.4,386.4,26.2,386.4,24.6 M383.5,22.3c1.3,0,2.4,1,2.4,2.4
		c0,1.3-1,2.4-2.4,2.4c-1.3,0-2.4-1-2.4-2.4C381.2,23.3,382.2,22.3,383.5,22.3 M381.1,23.1c-0.3,0.4-0.4,0.9-0.4,1.5
		c0,0.1,0,0.2,0,0.3l-2.8,0.9c-0.4-0.7-1-1.2-1.8-1.4v-2.8c0.6-0.2,1.2-0.5,1.6-1L381.1,23.1z M372.4,32.2l1.8-2.3
		c0.3,0.2,0.7,0.2,1.1,0.2c0.5,0,0.9-0.1,1.3-0.3l1.9,2.4c-0.4,0.5-0.6,1.1-0.7,1.7h-4.8C373.1,33.3,372.8,32.7,372.4,32.2
		 M375.3,24.9c1.3,0,2.4,1,2.4,2.4c0,1.3-1,2.4-2.4,2.4c-1.3,0-2.4-1-2.4-2.4C373,25.9,374,24.9,375.3,24.9 M375.3,16.5
		c1.3,0,2.4,1,2.4,2.4c0,1.3-1,2.4-2.4,2.4c-1.3,0-2.4-1-2.4-2.4C373,17.5,374,16.5,375.3,16.5 M374.8,21.6v2.8
		c-0.8,0.2-1.5,0.6-1.9,1.3l-2.6-0.9c0-0.1,0-0.1,0-0.2c0-0.6-0.2-1.1-0.5-1.6l3.3-2.4C373.5,21.2,374.1,21.5,374.8,21.6
		 M365.1,24.6c0-1.3,1-2.4,2.4-2.4c1.3,0,2.4,1,2.4,2.4c0,1.3-1,2.4-2.4,2.4C366.1,27,365.1,25.9,365.1,24.6 M368.4,27.3
		c0.7-0.2,1.2-0.7,1.6-1.3l2.5,0.9c0,0.1,0,0.2,0,0.4c0,0.7,0.3,1.4,0.8,1.9l-1.8,2.3c-0.4-0.2-0.8-0.3-1.2-0.3
		c-0.2,0-0.4,0-0.6,0.1L368.4,27.3z M370.2,36.4c-1.3,0-2.4-1-2.4-2.4s1-2.4,2.4-2.4c1.3,0,2.4,1,2.4,2.4S371.5,36.4,370.2,36.4
		 M380.7,36.4c-1.3,0-2.4-1-2.4-2.4s1-2.4,2.4-2.4c1.3,0,2.4,1,2.4,2.4S382,36.4,380.7,36.4 M380.7,31.2c-0.4,0-0.8,0.1-1.2,0.3
		l-1.9-2.5c0.4-0.5,0.6-1.1,0.6-1.8c0-0.1,0-0.2,0-0.3l2.8-0.9c0.3,0.5,0.8,1,1.4,1.2l-1.3,4C381,31.2,380.9,31.2,380.7,31.2"/>
</g>
<g>
	<g>
		<g>
			<g>
				<g>
					<path style="fill:#FFFFFF;" d="M359.7,196.7h-18.9c-0.9,0-1.6,0.7-1.6,1.6v18.9c0,0.9,0.7,1.6,1.6,1.6h18.9
						c0.9,0,1.6-0.7,1.6-1.6v-18.9C361.2,197.4,360.5,196.7,359.7,196.7z"/>
				</g>
			</g>
			<g>
				<path style="fill:#2C5967;" d="M359.6,197.2h-18.9c-0.6,0-1,0.5-1,1v18.9c0,0.6,0.5,1,1,1h18.9c0.6,0,1-0.5,1-1v-18.9
					C360.7,197.7,360.2,197.2,359.6,197.2z M360.1,217.1c0,0.3-0.2,0.5-0.5,0.5h-18.9c-0.3,0-0.5-0.2-0.5-0.5v-18.9
					c0-0.3,0.2-0.5,0.5-0.5h18.9c0.3,0,0.5,0.2,0.5,0.5V217.1z"/>
			</g>
		</g>
		<path style="fill:#2C5967;" d="M340.2,211.3h4.3l0,6.3h-4.3V211.3z M345.1,211.3h15.1v6.3h-15.1V211.3z M340.2,204.5h4.3l0,6.3
			h-4.3V204.5z M345.1,204.5h15.1v6.3h-15.1V204.5z M340.2,197.7h4.3v6.3h0h-4.3V197.7z M345.1,197.7h15.1v6.3h-1h-14V197.7z
			 M339.7,198.2v18.9c0,0.6,0.5,1,1,1h18.9c0.6,0,1-0.5,1-1v-18.9c0-0.6-0.5-1-1-1h-18.9C340.2,197.2,339.7,197.7,339.7,198.2z"/>
		<g>
			<polygon style="fill:#2C5967;" points="347.3,209.2 347.8,208.2 348.3,209.2 349.2,209.2 348.3,207.7 349.2,206.3 348.3,206.3 
				347.8,207.2 347.3,206.3 346.5,206.3 347.3,207.7 346.4,209.2 			"/>
			<rect x="349.6" y="208.5" style="fill:#2C5967;" width="0.8" height="0.7"/>
			<polygon style="fill:#2C5967;" points="351.9,209.2 352.4,208.2 352.9,209.2 353.7,209.2 352.9,207.7 353.7,206.3 352.8,206.3 
				352.4,207.2 351.9,206.3 351,206.3 351.8,207.7 351,209.2 			"/>
			<rect x="354" y="208.5" style="fill:#2C5967;" width="0.8" height="0.7"/>
			<polygon style="fill:#2C5967;" points="356.1,209.2 356.6,208.2 357.1,209.2 357.9,209.2 357.1,207.7 357.9,206.3 357,206.3 
				356.6,207.2 356.1,206.3 355.2,206.3 356,207.7 355.2,209.2 			"/>
			<rect x="358.2" y="208.5" style="fill:#2C5967;" width="0.8" height="0.7"/>
		</g>
		<g>
			<polygon style="fill:#2C5967;" points="347.3,216 347.8,215.1 348.3,216 349.2,216 348.3,214.5 349.2,213.1 348.3,213.1 
				347.8,214 347.3,213.1 346.5,213.1 347.3,214.5 346.4,216 			"/>
			<rect x="349.6" y="215.3" style="fill:#2C5967;" width="0.8" height="0.7"/>
			<polygon style="fill:#2C5967;" points="351.9,216 352.4,215.1 352.9,216 353.7,216 352.9,214.5 353.7,213.1 352.8,213.1 
				352.4,214 351.9,213.1 351,213.1 351.8,214.5 351,216 			"/>
			<rect x="354" y="215.3" style="fill:#2C5967;" width="0.8" height="0.7"/>
			<polygon style="fill:#2C5967;" points="356.1,216 356.6,215.1 357.1,216 357.9,216 357.1,214.5 357.9,213.1 357,213.1 356.6,214 
				356.1,213.1 355.2,213.1 356,214.5 355.2,216 			"/>
			<rect x="358.2" y="215.3" style="fill:#2C5967;" width="0.8" height="0.7"/>
		</g>
		<g>
			<polygon style="fill:#2C5967;" points="347.3,202.4 347.8,201.4 348.3,202.4 349.2,202.4 348.3,200.9 349.2,199.5 348.3,199.5 
				347.8,200.4 347.3,199.5 346.5,199.5 347.3,200.9 346.4,202.4 			"/>
			<rect x="349.6" y="201.7" style="fill:#2C5967;" width="0.8" height="0.7"/>
			<polygon style="fill:#2C5967;" points="351.9,202.4 352.4,201.4 352.9,202.4 353.7,202.4 352.9,200.9 353.7,199.5 352.8,199.5 
				352.4,200.4 351.9,199.5 351,199.5 351.8,200.9 351,202.4 			"/>
			<rect x="354" y="201.7" style="fill:#2C5967;" width="0.8" height="0.7"/>
			<polygon style="fill:#2C5967;" points="356.1,202.4 356.6,201.4 357.1,202.4 357.9,202.4 357.1,200.9 357.9,199.5 357,199.5 
				356.6,200.4 356.1,199.5 355.2,199.5 356,200.9 355.2,202.4 			"/>
			<rect x="358.2" y="201.7" style="fill:#2C5967;" width="0.8" height="0.7"/>
		</g>
	</g>
	<g>
		<path style="fill:#FFFFFF;" d="M350.2,170.9l-8.5,3.6l0,7.7l0,0.5l0,0c0.2,1.8,1.3,7.6,8.3,10.1l0.2,0.1l0.2-0.1
			c8.1-2.9,8.2-10.5,8.2-10.6v-7.7L350.2,170.9z"/>
		<g>
			<path style="fill:#2C5967;" d="M350.2,172.1l7.4,3.2v7.1c0,0.1-0.1,6.8-7.4,9.5c-7.3-2.7-7.4-9.2-7.4-9.5l0-7.1L350.2,172.1
				 M350.2,171.5l-8,3.4l0,7.4h0c0,0,0,7.3,7.9,10.1c7.9-2.8,7.9-10.1,7.9-10.1v-7.4L350.2,171.5L350.2,171.5z"/>
		</g>
		<polygon style="fill:#2C5967;" points="353.4,180.6 352.6,181.3 351.8,180.6 351.3,181.1 352.1,181.9 351.3,182.6 351.8,183.1 
			352.6,182.4 353.4,183.1 353.9,182.6 353.1,181.9 353.9,181.1 		"/>
		<polygon style="fill:#2C5967;" points="354.2,177.7 353.6,177.1 352.2,178.5 351.6,177.9 351.1,178.4 352.1,179.6 		"/>
		<polygon style="fill:#2C5967;" points="354.2,184.4 353.6,183.9 352.2,185.3 351.6,184.7 351.1,185.2 352.1,186.4 		"/>
		<rect x="346.2" y="181.4" style="fill:#2C5967;" width="3.7" height="1.1"/>
		<rect x="346.2" y="184.8" style="fill:#2C5967;" width="3.7" height="1.1"/>
		<rect x="346.2" y="178" style="fill:#2C5967;" width="3.7" height="1.1"/>
	</g>
</g>
<g>
	<g>
		<g>
			<g>
				<g>
					<path style="fill:#FFFFFF;" d="M358.8,125.5h-18.9c-0.9,0-1.6,0.7-1.6,1.6V146c0,0.9,0.7,1.6,1.6,1.6h18.9
						c0.9,0,1.6-0.7,1.6-1.6v-18.9C360.4,126.2,359.7,125.5,358.8,125.5z"/>
				</g>
			</g>
			<g>
				<path style="fill:#2C5967;" d="M358.8,126.1h-18.9c-0.6,0-1,0.5-1,1V146c0,0.6,0.5,1,1,1h18.9c0.6,0,1-0.5,1-1v-18.9
					C359.8,126.5,359.4,126.1,358.8,126.1z M359.3,146c0,0.3-0.2,0.5-0.5,0.5h-18.9c-0.3,0-0.5-0.2-0.5-0.5v-18.9
					c0-0.3,0.2-0.5,0.5-0.5h18.9c0.3,0,0.5,0.2,0.5,0.5V146z"/>
			</g>
		</g>
		<path style="fill:#2C5967;" d="M339.4,140.2h4.3l0,6.3h-4.3V140.2z M344.3,140.2h15.1v6.3h-15.1V140.2z M339.4,133.4h4.3l0,6.3
			h-4.3V133.4z M344.3,133.4h15.1v6.3h-15.1V133.4z M339.4,126.6h4.3v6.3h0h-4.3V126.6z M344.3,126.6h15.1v6.3h-1h-14V126.6z
			 M338.9,127.1V146c0,0.6,0.5,1,1,1h18.9c0.6,0,1-0.5,1-1v-18.9c0-0.6-0.5-1-1-1h-18.9C339.3,126,338.9,126.5,338.9,127.1z"/>
		<g>
			<polygon style="fill:#2C5967;" points="346.5,138 347,137.1 347.5,138 348.4,138 347.5,136.6 348.3,135.2 347.5,135.2 347,136 
				346.5,135.2 345.7,135.2 346.5,136.5 345.6,138 			"/>
			<rect x="348.8" y="137.3" style="fill:#2C5967;" width="0.8" height="0.7"/>
			<polygon style="fill:#2C5967;" points="351,138 351.5,137.1 352.1,138 352.9,138 352.1,136.6 352.9,135.2 352,135.2 351.5,136 
				351,135.2 350.2,135.2 351,136.5 350.2,138 			"/>
			<rect x="353.2" y="137.3" style="fill:#2C5967;" width="0.8" height="0.7"/>
			<polygon style="fill:#2C5967;" points="355.3,138 355.8,137.1 356.3,138 357.1,138 356.3,136.6 357.1,135.2 356.2,135.2 
				355.8,136 355.3,135.2 354.4,135.2 355.2,136.5 354.4,138 			"/>
			<rect x="357.4" y="137.3" style="fill:#2C5967;" width="0.8" height="0.7"/>
		</g>
		<g>
			<polygon style="fill:#2C5967;" points="346.5,144.8 347,143.9 347.5,144.8 348.4,144.8 347.5,143.4 348.3,142 347.5,142 
				347,142.9 346.5,142 345.7,142 346.5,143.3 345.6,144.8 			"/>
			<rect x="348.8" y="144.2" style="fill:#2C5967;" width="0.8" height="0.7"/>
			<polygon style="fill:#2C5967;" points="351,144.8 351.5,143.9 352.1,144.8 352.9,144.8 352.1,143.4 352.9,142 352,142 
				351.5,142.9 351,142 350.2,142 351,143.3 350.2,144.8 			"/>
			<rect x="353.2" y="144.2" style="fill:#2C5967;" width="0.8" height="0.7"/>
			<polygon style="fill:#2C5967;" points="355.3,144.8 355.8,143.9 356.3,144.8 357.1,144.8 356.3,143.4 357.1,142 356.2,142 
				355.8,142.9 355.3,142 354.4,142 355.2,143.3 354.4,144.8 			"/>
			<rect x="357.4" y="144.2" style="fill:#2C5967;" width="0.8" height="0.7"/>
		</g>
		<g>
			<polygon style="fill:#2C5967;" points="346.5,131.2 347,130.3 347.5,131.2 348.4,131.2 347.5,129.7 348.3,128.3 347.5,128.3 
				347,129.2 346.5,128.3 345.7,128.3 346.5,129.7 345.6,131.2 			"/>
			<rect x="348.8" y="130.5" style="fill:#2C5967;" width="0.8" height="0.7"/>
			<polygon style="fill:#2C5967;" points="351,131.2 351.5,130.3 352.1,131.2 352.9,131.2 352.1,129.7 352.9,128.3 352,128.3 
				351.5,129.2 351,128.3 350.2,128.3 351,129.7 350.2,131.2 			"/>
			<rect x="353.2" y="130.5" style="fill:#2C5967;" width="0.8" height="0.7"/>
			<polygon style="fill:#2C5967;" points="355.3,131.2 355.8,130.3 356.3,131.2 357.1,131.2 356.3,129.7 357.1,128.3 356.2,128.3 
				355.8,129.2 355.3,128.3 354.4,128.3 355.2,129.7 354.4,131.2 			"/>
			<rect x="357.4" y="130.5" style="fill:#2C5967;" width="0.8" height="0.7"/>
		</g>
	</g>
	<g>
		<path style="fill:#FFFFFF;" d="M349.4,99.8l-8.5,3.6l0,7.7l0,0.5l0,0c0.2,1.8,1.3,7.6,8.3,10.1l0.2,0.1l0.2-0.1
			c8.1-2.9,8.2-10.5,8.2-10.6v-7.7L349.4,99.8z"/>
		<g>
			<path style="fill:#2C5967;" d="M349.4,100.9l7.4,3.2v7.1c0,0.1-0.1,6.8-7.4,9.5c-7.3-2.7-7.4-9.2-7.4-9.5l0-7.1L349.4,100.9
				 M349.4,100.4l-8,3.4l0,7.4h0c0,0,0,7.3,7.9,10.1c7.9-2.8,7.9-10.1,7.9-10.1v-7.4L349.4,100.4L349.4,100.4z"/>
		</g>
		<polygon style="fill:#2C5967;" points="352.6,109.4 351.8,110.2 351,109.4 350.5,109.9 351.3,110.7 350.5,111.4 351,112 
			351.8,111.2 352.6,112 353.1,111.4 352.3,110.7 353.1,109.9 		"/>
		<polygon style="fill:#2C5967;" points="353.3,106.5 352.8,106 351.4,107.4 350.8,106.8 350.3,107.2 351.3,108.5 		"/>
		<polygon style="fill:#2C5967;" points="353.3,113.3 352.8,112.7 351.4,114.2 350.8,113.5 350.3,114 351.3,115.2 		"/>
		<rect x="345.3" y="110.2" style="fill:#2C5967;" width="3.7" height="1.1"/>
		<rect x="345.3" y="113.6" style="fill:#2C5967;" width="3.7" height="1.1"/>
		<rect x="345.3" y="106.9" style="fill:#2C5967;" width="3.7" height="1.1"/>
	</g>
</g>
<g>
	<g>
		<g>
			<g>
				<g>
					<path style="fill:#FFFFFF;" d="M359.7,283.2h-18.9c-0.9,0-1.6,0.7-1.6,1.6v18.9c0,0.9,0.7,1.6,1.6,1.6h18.9
						c0.9,0,1.6-0.7,1.6-1.6v-18.9C361.2,283.9,360.5,283.2,359.7,283.2z"/>
				</g>
			</g>
			<g>
				<path style="fill:#2C5967;" d="M359.6,283.7h-18.9c-0.6,0-1,0.5-1,1v18.9c0,0.6,0.5,1,1,1h18.9c0.6,0,1-0.5,1-1v-18.9
					C360.7,284.2,360.2,283.7,359.6,283.7z M360.1,303.6c0,0.3-0.2,0.5-0.5,0.5h-18.9c-0.3,0-0.5-0.2-0.5-0.5v-18.9
					c0-0.3,0.2-0.5,0.5-0.5h18.9c0.3,0,0.5,0.2,0.5,0.5V303.6z"/>
			</g>
		</g>
		<path style="fill:#2C5967;" d="M340.2,297.8h4.3l0,6.3h-4.3V297.8z M345.1,297.8h15.1v6.3h-15.1V297.8z M340.2,291h4.3l0,6.3h-4.3
			V291z M345.1,291h15.1v6.3h-15.1V291z M340.2,284.2h4.3v6.3h0h-4.3V284.2z M345.1,284.2h15.1v6.3h-1h-14V284.2z M339.7,284.7v18.9
			c0,0.6,0.5,1,1,1h18.9c0.6,0,1-0.5,1-1v-18.9c0-0.6-0.5-1-1-1h-18.9C340.2,283.7,339.7,284.2,339.7,284.7z"/>
		<g>
			<polygon style="fill:#2C5967;" points="347.3,295.7 347.8,294.7 348.3,295.7 349.2,295.7 348.3,294.2 349.2,292.8 348.3,292.8 
				347.8,293.7 347.3,292.8 346.5,292.8 347.3,294.2 346.4,295.7 			"/>
			<rect x="349.6" y="295" style="fill:#2C5967;" width="0.8" height="0.7"/>
			<polygon style="fill:#2C5967;" points="351.9,295.7 352.4,294.7 352.9,295.7 353.7,295.7 352.9,294.2 353.7,292.8 352.8,292.8 
				352.4,293.7 351.9,292.8 351,292.8 351.8,294.2 351,295.7 			"/>
			<rect x="354" y="295" style="fill:#2C5967;" width="0.8" height="0.7"/>
			<polygon style="fill:#2C5967;" points="356.1,295.7 356.6,294.7 357.1,295.7 357.9,295.7 357.1,294.2 357.9,292.8 357,292.8 
				356.6,293.7 356.1,292.8 355.2,292.8 356,294.2 355.2,295.7 			"/>
			<rect x="358.2" y="295" style="fill:#2C5967;" width="0.8" height="0.7"/>
		</g>
		<g>
			<polygon style="fill:#2C5967;" points="347.3,302.5 347.8,301.6 348.3,302.5 349.2,302.5 348.3,301 349.2,299.6 348.3,299.6 
				347.8,300.5 347.3,299.6 346.5,299.6 347.3,301 346.4,302.5 			"/>
			<rect x="349.6" y="301.8" style="fill:#2C5967;" width="0.8" height="0.7"/>
			<polygon style="fill:#2C5967;" points="351.9,302.5 352.4,301.6 352.9,302.5 353.7,302.5 352.9,301 353.7,299.6 352.8,299.6 
				352.4,300.5 351.9,299.6 351,299.6 351.8,301 351,302.5 			"/>
			<rect x="354" y="301.8" style="fill:#2C5967;" width="0.8" height="0.7"/>
			<polygon style="fill:#2C5967;" points="356.1,302.5 356.6,301.6 357.1,302.5 357.9,302.5 357.1,301 357.9,299.6 357,299.6 
				356.6,300.5 356.1,299.6 355.2,299.6 356,301 355.2,302.5 			"/>
			<rect x="358.2" y="301.8" style="fill:#2C5967;" width="0.8" height="0.7"/>
		</g>
		<g>
			<polygon style="fill:#2C5967;" points="347.3,288.9 347.8,287.9 348.3,288.9 349.2,288.9 348.3,287.4 349.2,286 348.3,286 
				347.8,286.9 347.3,286 346.5,286 347.3,287.4 346.4,288.9 			"/>
			<rect x="349.6" y="288.2" style="fill:#2C5967;" width="0.8" height="0.7"/>
			<polygon style="fill:#2C5967;" points="351.9,288.9 352.4,287.9 352.9,288.9 353.7,288.9 352.9,287.4 353.7,286 352.8,286 
				352.4,286.9 351.9,286 351,286 351.8,287.4 351,288.9 			"/>
			<rect x="354" y="288.2" style="fill:#2C5967;" width="0.8" height="0.7"/>
			<polygon style="fill:#2C5967;" points="356.1,288.9 356.6,287.9 357.1,288.9 357.9,288.9 357.1,287.4 357.9,286 357,286 
				356.6,286.9 356.1,286 355.2,286 356,287.4 355.2,288.9 			"/>
			<rect x="358.2" y="288.2" style="fill:#2C5967;" width="0.8" height="0.7"/>
		</g>
	</g>
	<g>
		<path style="fill:#FFFFFF;" d="M350.2,257.4l-8.5,3.6l0,7.7l0,0.5l0,0c0.2,1.8,1.3,7.6,8.3,10.1l0.2,0.1l0.2-0.1
			c8.1-2.9,8.2-10.5,8.2-10.6v-7.7L350.2,257.4z"/>
		<g>
			<path style="fill:#2C5967;" d="M350.2,258.6l7.4,3.2v7.1c0,0.1-0.1,6.8-7.4,9.5c-7.3-2.7-7.4-9.2-7.4-9.5l0-7.1L350.2,258.6
				 M350.2,258l-8,3.4l0,7.4h0c0,0,0,7.3,7.9,10.1c7.9-2.8,7.9-10.1,7.9-10.1v-7.4L350.2,258L350.2,258z"/>
		</g>
		<polygon style="fill:#2C5967;" points="353.4,267.1 352.6,267.8 351.8,267.1 351.3,267.6 352.1,268.4 351.3,269.1 351.8,269.6 
			352.6,268.9 353.4,269.6 353.9,269.1 353.1,268.4 353.9,267.6 		"/>
		<polygon style="fill:#2C5967;" points="354.2,264.2 353.6,263.6 352.2,265 351.6,264.4 351.1,264.9 352.1,266.1 		"/>
		<polygon style="fill:#2C5967;" points="354.2,270.9 353.6,270.4 352.2,271.8 351.6,271.2 351.1,271.7 352.1,272.9 		"/>
		<rect x="346.2" y="267.9" style="fill:#2C5967;" width="3.7" height="1.1"/>
		<rect x="346.2" y="271.3" style="fill:#2C5967;" width="3.7" height="1.1"/>
		<rect x="346.2" y="264.5" style="fill:#2C5967;" width="3.7" height="1.1"/>
	</g>
</g>
<g>
	<g>
		<g>
			<g>
				<g>
					<path style="fill:#FFFFFF;" d="M359.7,348.2h-18.9c-0.9,0-1.6,0.7-1.6,1.6v18.9c0,0.9,0.7,1.6,1.6,1.6h18.9
						c0.9,0,1.6-0.7,1.6-1.6v-18.9C361.2,348.9,360.5,348.2,359.7,348.2z"/>
				</g>
			</g>
			<g>
				<path style="fill:#2C5967;" d="M359.6,348.7h-18.9c-0.6,0-1,0.5-1,1v18.9c0,0.6,0.5,1,1,1h18.9c0.6,0,1-0.5,1-1v-18.9
					C360.7,349.2,360.2,348.7,359.6,348.7z M360.1,368.6c0,0.3-0.2,0.5-0.5,0.5h-18.9c-0.3,0-0.5-0.2-0.5-0.5v-18.9
					c0-0.3,0.2-0.5,0.5-0.5h18.9c0.3,0,0.5,0.2,0.5,0.5V368.6z"/>
			</g>
		</g>
		<path style="fill:#2C5967;" d="M340.2,362.8h4.3l0,6.3h-4.3V362.8z M345.1,362.8h15.1v6.3h-15.1V362.8z M340.2,356h4.3l0,6.3h-4.3
			V356z M345.1,356h15.1v6.3h-15.1V356z M340.2,349.2h4.3v6.3h0h-4.3V349.2z M345.1,349.2h15.1v6.3h-1h-14V349.2z M339.7,349.7v18.9
			c0,0.6,0.5,1,1,1h18.9c0.6,0,1-0.5,1-1v-18.9c0-0.6-0.5-1-1-1h-18.9C340.2,348.7,339.7,349.2,339.7,349.7z"/>
		<g>
			<polygon style="fill:#2C5967;" points="347.3,360.7 347.8,359.7 348.3,360.7 349.2,360.7 348.3,359.2 349.2,357.8 348.3,357.8 
				347.8,358.7 347.3,357.8 346.5,357.8 347.3,359.2 346.4,360.7 			"/>
			<rect x="349.6" y="360" style="fill:#2C5967;" width="0.8" height="0.7"/>
			<polygon style="fill:#2C5967;" points="351.9,360.7 352.4,359.7 352.9,360.7 353.7,360.7 352.9,359.2 353.7,357.8 352.8,357.8 
				352.4,358.7 351.9,357.8 351,357.8 351.8,359.2 351,360.7 			"/>
			<rect x="354" y="360" style="fill:#2C5967;" width="0.8" height="0.7"/>
			<polygon style="fill:#2C5967;" points="356.1,360.7 356.6,359.7 357.1,360.7 357.9,360.7 357.1,359.2 357.9,357.8 357,357.8 
				356.6,358.7 356.1,357.8 355.2,357.8 356,359.2 355.2,360.7 			"/>
			<rect x="358.2" y="360" style="fill:#2C5967;" width="0.8" height="0.7"/>
		</g>
		<g>
			<polygon style="fill:#2C5967;" points="347.3,367.5 347.8,366.6 348.3,367.5 349.2,367.5 348.3,366 349.2,364.6 348.3,364.6 
				347.8,365.5 347.3,364.6 346.5,364.6 347.3,366 346.4,367.5 			"/>
			<rect x="349.6" y="366.8" style="fill:#2C5967;" width="0.8" height="0.7"/>
			<polygon style="fill:#2C5967;" points="351.9,367.5 352.4,366.6 352.9,367.5 353.7,367.5 352.9,366 353.7,364.6 352.8,364.6 
				352.4,365.5 351.9,364.6 351,364.6 351.8,366 351,367.5 			"/>
			<rect x="354" y="366.8" style="fill:#2C5967;" width="0.8" height="0.7"/>
			<polygon style="fill:#2C5967;" points="356.1,367.5 356.6,366.6 357.1,367.5 357.9,367.5 357.1,366 357.9,364.6 357,364.6 
				356.6,365.5 356.1,364.6 355.2,364.6 356,366 355.2,367.5 			"/>
			<rect x="358.2" y="366.8" style="fill:#2C5967;" width="0.8" height="0.7"/>
		</g>
		<g>
			<polygon style="fill:#2C5967;" points="347.3,353.9 347.8,352.9 348.3,353.9 349.2,353.9 348.3,352.4 349.2,351 348.3,351 
				347.8,351.9 347.3,351 346.5,351 347.3,352.4 346.4,353.9 			"/>
			<rect x="349.6" y="353.2" style="fill:#2C5967;" width="0.8" height="0.7"/>
			<polygon style="fill:#2C5967;" points="351.9,353.9 352.4,352.9 352.9,353.9 353.7,353.9 352.9,352.4 353.7,351 352.8,351 
				352.4,351.9 351.9,351 351,351 351.8,352.4 351,353.9 			"/>
			<rect x="354" y="353.2" style="fill:#2C5967;" width="0.8" height="0.7"/>
			<polygon style="fill:#2C5967;" points="356.1,353.9 356.6,352.9 357.1,353.9 357.9,353.9 357.1,352.4 357.9,351 357,351 
				356.6,351.9 356.1,351 355.2,351 356,352.4 355.2,353.9 			"/>
			<rect x="358.2" y="353.2" style="fill:#2C5967;" width="0.8" height="0.7"/>
		</g>
	</g>
	<g>
		<path style="fill:#FFFFFF;" d="M350.2,322.4l-8.5,3.6l0,7.7l0,0.5l0,0c0.2,1.8,1.3,7.6,8.3,10.1l0.2,0.1l0.2-0.1
			c8.1-2.9,8.2-10.5,8.2-10.6v-7.7L350.2,322.4z"/>
		<g>
			<path style="fill:#2C5967;" d="M350.2,323.6l7.4,3.2v7.1c0,0.1-0.1,6.8-7.4,9.5c-7.3-2.7-7.4-9.2-7.4-9.5l0-7.1L350.2,323.6
				 M350.2,323l-8,3.4l0,7.4h0c0,0,0,7.3,7.9,10.1c7.9-2.8,7.9-10.1,7.9-10.1v-7.4L350.2,323L350.2,323z"/>
		</g>
		<polygon style="fill:#2C5967;" points="353.4,332.1 352.6,332.8 351.8,332.1 351.3,332.6 352.1,333.4 351.3,334.1 351.8,334.6 
			352.6,333.9 353.4,334.6 353.9,334.1 353.1,333.4 353.9,332.6 		"/>
		<polygon style="fill:#2C5967;" points="354.2,329.2 353.6,328.6 352.2,330 351.6,329.4 351.1,329.9 352.1,331.1 		"/>
		<polygon style="fill:#2C5967;" points="354.2,335.9 353.6,335.4 352.2,336.8 351.6,336.2 351.1,336.7 352.1,337.9 		"/>
		<rect x="346.2" y="332.9" style="fill:#2C5967;" width="3.7" height="1.1"/>
		<rect x="346.2" y="336.3" style="fill:#2C5967;" width="3.7" height="1.1"/>
		<rect x="346.2" y="329.5" style="fill:#2C5967;" width="3.7" height="1.1"/>
	</g>
</g>
<text transform="matrix(1 0 0 1 165.1964 145.1277)" style="fill:#100F0E; font-family:'OracleSans-Regular'; font-size:8px;">Bastion Host</text>
<g>
	<g>
		<g>
			<g>
				<path style="fill:#FFFFFF;" d="M201.8,105.9h-27.5c-1.3,0-2.4,1-2.4,2.3v27.4c0,1.3,1.1,2.3,2.4,2.3h27.5c1.3,0,2.4-1,2.4-2.3
					v-27.4C204,106.9,203,105.9,201.8,105.9z"/>
			</g>
		</g>
		<g>
			<path style="fill:#2C5967;" d="M201.7,106.7h-27.5c-0.8,0-1.5,0.7-1.5,1.5v27.4c0,0.8,0.7,1.5,1.5,1.5h27.5
				c0.8,0,1.5-0.7,1.5-1.5v-27.4C203.2,107.3,202.5,106.7,201.7,106.7z M202.5,135.6c0,0.4-0.3,0.8-0.8,0.8h-27.5
				c-0.4,0-0.8-0.3-0.8-0.8v-27.4c0-0.4,0.3-0.8,0.8-0.8h27.5c0.4,0,0.8,0.3,0.8,0.8V135.6z"/>
		</g>
	</g>
	<path style="fill:#2C5967;" d="M190.7,118.3h-5.7v5.7h5.7V118.3z M189.2,122.5h-2.7v-2.7h2.7V122.5z"/>
	<path style="fill:#2C5967;" d="M193.2,130.1c0.6,0,1-0.4,1-1c0-0.6-0.4-1-1-1c-0.6,0-1,0.4-1,1
		C192.2,129.6,192.7,130.1,193.2,130.1z"/>
	<path style="fill:#2C5967;" d="M183.6,118.3h-5.7v5.7h5.7V118.3z M182.1,122.5h-2.7v-2.7h2.7V122.5z"/>
	<path style="fill:#2C5967;" d="M190.7,111.3h-5.7v5.7h5.7V111.3z M189.2,115.5h-2.7v-2.7h2.7V115.5z"/>
	<path style="fill:#2C5967;" d="M197.9,111.3h-5.7v5.7h5.7V111.3z M196.4,115.5h-2.7v-2.7h2.7V115.5z"/>
	<path style="fill:#2C5967;" d="M183.6,111.3h-5.7v5.7h5.7V111.3z M182.1,115.5h-2.7v-2.7h2.7V115.5z"/>
	<path style="fill:#2C5967;" d="M198.2,132.8v-7.4h-20.4v7.4H198.2L198.2,132.8z M196.3,130.9h-16.6v-3.6h16.6V130.9z"/>
	<path style="fill:#2C5967;" d="M197.9,118.3h-5.7v5.7h5.7V118.3z M196.4,122.5h-2.7v-2.7h2.7V122.5z"/>
</g>
<text transform="matrix(1 0 0 1 76.7567 384.3529)" style="fill:#100F0E; font-family:'OracleSans-Regular'; font-size:8px;">Primary</text>
<text transform="matrix(1 0 0 1 265.3503 383.5745)" style="fill:#100F0E; font-family:'OracleSans-Regular'; font-size:8px;">Secondary</text>
<text transform="matrix(1 0 0 1 169.9993 419.885)" style="fill:#100F0E; font-family:'OracleSans-Regular'; font-size:8px;">Secondary</text>
<polyline style="fill:none;stroke:#100F0E;stroke-width:0.5;stroke-miterlimit:10;" points="112.4,199.4 134.3,199.4 134.3,57.8 "/>
<polyline style="fill:none;stroke:#100F0E;stroke-width:0.5;stroke-miterlimit:10;" points="169.3,121.9 144.9,121.9 144.9,57.8 "/>
<rect x="135.6" y="245.2" style="fill:#DFDCD8;" width="5" height="5"/>
<line style="fill:none;stroke:#100F0E;stroke-width:0.5;stroke-miterlimit:10;" x1="138" y1="204.4" x2="138" y2="275.4"/>
<text transform="matrix(1 0 0 1 74.1008 86.1502)" style="fill:#3F3A36; font-family:'OracleSans-SemiBold'; font-size:8px;">Domain 1</text>
<text transform="matrix(1 0 0 1 171.5994 86.1502)" style="fill:#3F3A36; font-family:'OracleSans-SemiBold'; font-size:8px;">Domain 2</text>
<g>
	<g>
		<g>
			<path style="fill:#FFFFFF;" d="M140.8,20L140.8,20v-0.8v-0.1v-0.6v0h4h0l0,0l0,0l0,0c2.5-0.2,4.4-2.4,4.4-4.9
				c0-2.5-1.9-4.6-4.4-4.8c-0.9-1.4-2.4-2.3-4.1-2.3c-0.1,0-0.2,0-0.3,0c-0.9-1-2.1-1.5-3.5-1.5h0c-2.4,0-4.4,1.8-4.8,4.2
				c-1.9,0.7-3.1,2.5-3.1,4.5c0,2.7,2.1,4.8,4.8,4.8h3.8v0v0.6v0.1V20V20v0.6v0.1c-3.8,0.7-6.6,4.1-6.6,8.1c0,4.5,3.6,8.2,8.1,8.2
				c4.5,0,8.1-3.7,8.1-8.2c0-4-2.8-7.3-6.6-8.1v-0.1V20z"/>
			<rect x="138.5" y="20" style="fill:#2C5967;" width="1.5" height="0.6"/>
			<rect x="138.5" y="18.6" style="fill:#2C5967;" width="1.5" height="0.6"/>
			<g>
				<polygon style="fill:#2C5967;" points="137.8,26.3 138.6,26.3 138.6,31.4 137.8,31.4 139.3,34 140.7,31.4 140,31.4 140,26.3 
					140.7,26.3 139.3,23.7 				"/>
				<path style="fill:#2C5967;" d="M139.3,21.4c-4,0-7.3,3.3-7.3,7.5c0,4.1,3.3,7.5,7.3,7.5c4,0,7.3-3.3,7.3-7.5
					C146.6,24.8,143.3,21.4,139.3,21.4z M140.5,28.9l2.5,1.4v-0.6h2.8c-0.4,3.3-3.2,6-6.5,6c-3.4,0-6.2-2.7-6.5-6.1h2.9v0.7l2.5-1.4
					l-2.5-1.4v0.7h-2.9c0.4-3.3,3.2-6,6.5-6c3.4,0,6.2,2.7,6.5,6H143v-0.7L140.5,28.9z"/>
			</g>
			<path style="fill:#2C5967;" d="M144.5,9.6C144.5,9.6,144.5,9.6,144.5,9.6c-0.7-1.3-2.1-2.3-3.7-2.3c-0.2,0-0.4,0-0.6,0.1
				c-0.7-0.9-1.9-1.5-3.2-1.5c-2.2,0-4,1.8-4,4c-1.8,0.4-3.1,2-3.1,3.9c0,2.2,1.8,4.1,4,4.1c1.8,0,10.9,0,10.9,0l0,0l0,0
				c2.1-0.2,3.7-2,3.7-4.1C148.6,11.4,146.8,9.6,144.5,9.6z M144.8,17.1L144.8,17.1l-4.8,0V15h3.5l-4.3-4.3L135,15h3.5v2.1h-4.6
				c-1.8,0-3.2-1.5-3.2-3.3c0-1.5,1-2.8,2.5-3.2l0.6-0.1l0-0.6c0-1.8,1.5-3.3,3.3-3.3c1,0,2,0.5,2.6,1.3l0.3,0.3l0.4-0.1
				c0.2,0,0.4,0,0.5,0c1.3,0,2.4,0.7,3,1.9l0.2,0.4h0.5c0,0,0,0,0.1,0c1.8,0,3.3,1.5,3.3,3.3C147.8,15.4,146.5,16.9,144.8,17.1z"/>
		</g>
		<text transform="matrix(1 0 0 1 125.0144 44.3503)" style="fill:#100F0E; font-family:'OracleSans-Regular'; font-size:8px;">Internet</text>
	</g>
	<text transform="matrix(1 0 0 1 123.7429 52.3499)" style="fill:#3F3A36; font-family:'OracleSans-Regular'; font-size:8px;">Gateway</text>
</g>
<text transform="matrix(1 0 0 1 267.7978 86.1502)" style="fill:#3F3A36; font-family:'OracleSans-SemiBold'; font-size:8px;">Domain 3</text>
<g>
	<g style="opacity:0.75;">
		<g>
			<polyline style="fill:none;stroke:#BB501C;stroke-width:0.5;stroke-miterlimit:10;" points="367.9,153.7 367.9,155.7 
				365.9,155.7 			"/>
			
				<line style="fill:none;stroke:#BB501C;stroke-width:0.5;stroke-miterlimit:10;stroke-dasharray:4.015,2.0075;" x1="363.9" y1="155.7" x2="15.6" y2="155.7"/>
			<polyline style="fill:none;stroke:#BB501C;stroke-width:0.5;stroke-miterlimit:10;" points="14.6,155.7 12.6,155.7 12.6,153.7 
							"/>
			
				<line style="fill:none;stroke:#BB501C;stroke-width:0.5;stroke-miterlimit:10;stroke-dasharray:3.8457,1.9228;" x1="12.6" y1="151.8" x2="12.6" y2="95.1"/>
			<polyline style="fill:none;stroke:#BB501C;stroke-width:0.5;stroke-miterlimit:10;" points="12.6,94.1 12.6,92.1 14.6,92.1 			
				"/>
			
				<line style="fill:none;stroke:#BB501C;stroke-width:0.5;stroke-miterlimit:10;stroke-dasharray:4.015,2.0075;" x1="16.6" y1="92.1" x2="364.9" y2="92.1"/>
			<polyline style="fill:none;stroke:#BB501C;stroke-width:0.5;stroke-miterlimit:10;" points="365.9,92.1 367.9,92.1 367.9,94.1 
							"/>
			
				<line style="fill:none;stroke:#BB501C;stroke-width:0.5;stroke-miterlimit:10;stroke-dasharray:3.8457,1.9228;" x1="367.9" y1="96.1" x2="367.9" y2="152.8"/>
		</g>
	</g>
	<text transform="matrix(1 0 0 1 17.5158 103.1395)" style="fill:#312D2A; font-family:'OracleSans-SemiBold'; font-size:8px;">Public </text>
</g>
<g>
	<g style="opacity:0.75;">
		<g>
			<polyline style="fill:none;stroke:#BB501C;stroke-width:0.5;stroke-miterlimit:10;" points="367.9,234.5 367.9,236.5 
				365.9,236.5 			"/>
			
				<line style="fill:none;stroke:#BB501C;stroke-width:0.5;stroke-miterlimit:10;stroke-dasharray:4.015,2.0075;" x1="363.9" y1="236.5" x2="15.6" y2="236.5"/>
			<polyline style="fill:none;stroke:#BB501C;stroke-width:0.5;stroke-miterlimit:10;" points="14.6,236.5 12.6,236.5 12.6,234.5 
							"/>
			
				<line style="fill:none;stroke:#BB501C;stroke-width:0.5;stroke-miterlimit:10;stroke-dasharray:3.8707,1.9354;" x1="12.6" y1="232.6" x2="12.6" y2="163.8"/>
			<polyline style="fill:none;stroke:#BB501C;stroke-width:0.5;stroke-miterlimit:10;" points="12.6,162.9 12.6,160.9 14.6,160.9 
							"/>
			
				<line style="fill:none;stroke:#BB501C;stroke-width:0.5;stroke-miterlimit:10;stroke-dasharray:4.015,2.0075;" x1="16.6" y1="160.9" x2="364.9" y2="160.9"/>
			<polyline style="fill:none;stroke:#BB501C;stroke-width:0.5;stroke-miterlimit:10;" points="365.9,160.9 367.9,160.9 
				367.9,162.9 			"/>
			
				<line style="fill:none;stroke:#BB501C;stroke-width:0.5;stroke-miterlimit:10;stroke-dasharray:3.8707,1.9354;" x1="367.9" y1="164.8" x2="367.9" y2="233.5"/>
		</g>
	</g>
	<text transform="matrix(1 0 0 1 17.5158 171.8895)" style="fill:#312D2A; font-family:'OracleSans-SemiBold'; font-size:8px;">Public </text>
</g>
<g>
	<g style="opacity:0.75;">
		<g>
			<polyline style="fill:none;stroke:#BB501C;stroke-width:0.5;stroke-miterlimit:10;" points="367.9,310.7 367.9,312.7 
				365.9,312.7 			"/>
			
				<line style="fill:none;stroke:#BB501C;stroke-width:0.5;stroke-miterlimit:10;stroke-dasharray:4.015,2.0075;" x1="363.9" y1="312.7" x2="15.6" y2="312.7"/>
			<polyline style="fill:none;stroke:#BB501C;stroke-width:0.5;stroke-miterlimit:10;" points="14.6,312.7 12.6,312.7 12.6,310.7 
							"/>
			
				<line style="fill:none;stroke:#BB501C;stroke-width:0.5;stroke-miterlimit:10;stroke-dasharray:3.9181,1.9591;" x1="12.6" y1="308.8" x2="12.6" y2="245.1"/>
			<polyline style="fill:none;stroke:#BB501C;stroke-width:0.5;stroke-miterlimit:10;" points="12.6,244.1 12.6,242.1 14.6,242.1 
							"/>
			
				<line style="fill:none;stroke:#BB501C;stroke-width:0.5;stroke-miterlimit:10;stroke-dasharray:4.015,2.0075;" x1="16.6" y1="242.1" x2="364.9" y2="242.1"/>
			<polyline style="fill:none;stroke:#BB501C;stroke-width:0.5;stroke-miterlimit:10;" points="365.9,242.1 367.9,242.1 
				367.9,244.1 			"/>
			
				<line style="fill:none;stroke:#BB501C;stroke-width:0.5;stroke-miterlimit:10;stroke-dasharray:3.9181,1.9591;" x1="367.9" y1="246.1" x2="367.9" y2="309.8"/>
		</g>
	</g>
	<text transform="matrix(1 0 0 1 17.5158 253.1396)" style="fill:#312D2A; font-family:'OracleSans-SemiBold'; font-size:8px;">Private </text>
</g>
<g>
	<g style="opacity:0.75;">
		<g>
			<polyline style="fill:none;stroke:#BB501C;stroke-width:0.5;stroke-miterlimit:10;" points="367.9,429.2 367.9,431.2 
				365.9,431.2 			"/>
			
				<line style="fill:none;stroke:#BB501C;stroke-width:0.5;stroke-miterlimit:10;stroke-dasharray:4.015,2.0075;" x1="363.9" y1="431.2" x2="15.6" y2="431.2"/>
			<polyline style="fill:none;stroke:#BB501C;stroke-width:0.5;stroke-miterlimit:10;" points="14.6,431.2 12.6,431.2 12.6,429.2 
							"/>
			
				<line style="fill:none;stroke:#BB501C;stroke-width:0.5;stroke-miterlimit:10;stroke-dasharray:4.013,2.0065;" x1="12.6" y1="427.2" x2="12.6" y2="319.9"/>
			<polyline style="fill:none;stroke:#BB501C;stroke-width:0.5;stroke-miterlimit:10;" points="12.6,318.9 12.6,316.9 14.6,316.9 
							"/>
			
				<line style="fill:none;stroke:#BB501C;stroke-width:0.5;stroke-miterlimit:10;stroke-dasharray:4.015,2.0075;" x1="16.6" y1="316.9" x2="364.9" y2="316.9"/>
			<polyline style="fill:none;stroke:#BB501C;stroke-width:0.5;stroke-miterlimit:10;" points="365.9,316.9 367.9,316.9 
				367.9,318.9 			"/>
			
				<line style="fill:none;stroke:#BB501C;stroke-width:0.5;stroke-miterlimit:10;stroke-dasharray:4.013,2.0065;" x1="367.9" y1="320.9" x2="367.9" y2="428.2"/>
		</g>
	</g>
	<text transform="matrix(1 0 0 1 17.5158 327.8896)" style="fill:#312D2A; font-family:'OracleSans-SemiBold'; font-size:8px;">Private </text>
</g>
<text transform="matrix(1 0 0 1 52.5871 48.9709)" style="fill:#3F3A36; font-family:'OracleSans-Bold'; font-size:8px;">Domain 1</text>
<line style="fill:none;stroke:#100F0E;stroke-width:0.5;stroke-miterlimit:10;" x1="101.9" y1="335.4" x2="101.9" y2="351"/>
<text transform="matrix(1 0 0 1 64.8569 299.9531)" style="fill:#100F0E; font-family:'OracleSans-Regular'; font-size:8px;">Tomcat Server</text>
<text transform="matrix(1 0 0 1 161.7612 299.9531)" style="fill:#100F0E; font-family:'OracleSans-Regular'; font-size:8px;">Tomcat Server</text>
<g>
	<g>
		<path style="fill:#FFFFFF;" d="M98.1,376.7c-5.2,0-6.6-1.4-6.8-1.7l-0.2-0.3v-3.5h-9.3c-1.8-0.1-3.2-0.8-4.1-1.9
			c-1.5-1.8-1.2-4.2-1.2-4.3c0.4-2.5,1.9-3.8,3-4.4c0.5-0.3,1.1-0.5,1.6-0.6c1-2.5,3-3.1,3.4-3.2c0.5-0.2,1-0.2,1.6-0.2
			c0.5,0,1,0.1,1.4,0.2c-0.1-0.1-0.1-0.2-0.2-0.2c-1-1.3-0.9-3-0.6-4.2c0.1-0.3,0.1-0.6,0.2-0.9c0-0.1,0.1-0.2,0.1-0.2
			c-0.1,0-0.1-0.1-0.1-0.1c-0.2-0.3-0.4-0.6-0.6-0.9c-0.2-0.4-0.4-0.9-0.6-1.3l-0.2-0.4c-0.1-0.1-0.1-0.3-0.1-0.4
			c0-0.1-0.1-0.2-0.1-0.2c-0.1-0.2-0.3-0.4-0.5-0.6c-0.1-0.1-0.1-0.1-0.2-0.2c0,0-0.1-0.1-0.1-0.1c-0.5-0.5-1.3-1.4-0.8-2.4
			c0.2-0.4,0.5-0.7,1-0.8c0.2-0.1,0.4-0.1,0.7-0.1c1,0,2.1,0.5,2.6,0.8c0.1,0.1,0.2,0.2,0.3,0.2c0.1,0,0.1,0.1,0.2,0.1
			c1.2,0,2.4,0.3,3.4,0.8c2.1,1.1,3.9,2.6,5.3,4.5c0.2,0.3,0.4,0.6,0.5,1c0.1,0.2,0.1,0.3,0.2,0.5c0.4,0.8,0.8,1.5,1.2,2.1
			c0.1,0.1,0.1,0.2,0.2,0.3c0.1,0.2,0.2,0.4,0.3,0.5c0.2,0.1,0.4,0.2,0.6,0.3c0.2,0.1,0.4,0.1,0.5,0.2c0.5,0.2,1,0.4,1.4,0.6
			c0.9,0.5,1.8,1.1,2.5,1.9c0.3,0.3,0.3,0.7,0.2,0.8c-0.1,0.4-0.6,0.5-0.9,0.5l-0.2,0c-0.3,0-0.5,0.1-0.8,0.1c-0.1,0-0.3,0-0.4,0
			c0,0,0.3,0.1,0.3,0.1c0.1,0.1,0.3,0.1,0.4,0.2c0.6,0.4,1.1,0.8,1.6,1.3l0.4,0.3c0.2,0.2,0.3,0.3,0.3,0.3c0.1,0.1,0.1,0.3,0.1,0.5
			c0,0.2-0.1,0.6-0.1,0.6c0,0.2-0.2,0.6-0.3,0.8v11.6l-0.4,0.3C104.5,375.4,102.5,376.7,98.1,376.7z M90.9,358.3
			c0.4,0,0.8,0,1.1,0.1c-0.2-0.2-0.4-0.3-0.6-0.5c-0.5-0.4-1-0.8-1.3-1.3c-0.1,0.4-0.3,0.7-0.8,0.9c-0.1,0-0.2,0.1-0.3,0.1
			c0.3,0.2,0.7,0.5,1,0.8C90.3,358.4,90.6,358.3,90.9,358.3z"/>
		<path style="fill:#FFFFFF;" d="M85.2,344.2c0.9,0,1.9,0.5,2.4,0.8c0.1,0.1,0.2,0.1,0.3,0.2c0.1,0.1,0.2,0.2,0.4,0.2
			c1.2,0,2.3,0.3,3.3,0.8c2,1,3.8,2.5,5.1,4.4c0.2,0.3,0.3,0.6,0.5,0.9c0.1,0.2,0.2,0.3,0.3,0.5c0.4,0.8,0.8,1.5,1.2,2.1
			c0.1,0.1,0.1,0.2,0.1,0.3c0.1,0.2,0.3,0.5,0.4,0.7c0.2,0.2,0.5,0.3,0.8,0.4c0.1,0,0.3,0.1,0.4,0.1c0.5,0.2,0.9,0.4,1.3,0.6
			c0.9,0.5,1.7,1.1,2.4,1.8c0.1,0.1,0.1,0.2,0.1,0.3c-0.1,0.1-0.3,0.2-0.5,0.2l-0.2,0c-0.2,0-0.5,0.1-0.7,0.1c-0.2,0-0.5,0-0.7,0.1
			l-0.1,0c-0.3,0.1-0.5,0.1-0.8,0.2c0.2,0.3,0.7,0.6,1.2,0.8c0.2,0.1,0.3,0.2,0.4,0.2c0.6,0.3,1.1,0.8,1.5,1.2l0.2,0.2
			c0.1,0.1,0.2,0.2,0.2,0.2s0.1,0.1,0.2,0.2c0,0.1,0.1,0.2,0.1,0.2c0,0.1,0,0.4-0.1,0.5c-0.1,0.2-0.3,0.9-0.3,0.9v11.5l-0.2,0.2
			c-0.1,0.1-1.9,1.4-6.3,1.4c-5.1,0-6.3-1.3-6.4-1.5l-0.1-0.2v-3.8h-9.8c-1.6-0.1-2.9-0.7-3.7-1.7c-1.3-1.6-1.1-3.8-1.1-3.9v0
			c0.4-2.3,1.7-3.4,2.7-4c0.5-0.3,1.1-0.5,1.8-0.6c0.9-2.5,2.8-3.1,3.1-3.1c0.5-0.1,1-0.2,1.5-0.2c1.5,0,2.9,0.6,3.9,1.8
			c0.4-0.1,0.7-0.1,1.1-0.1c1,0,1.8,0.3,2.5,0.8v-1c-0.6-0.2-1.2-0.7-1.7-1.1l0,0c-0.5-0.4-0.9-0.8-1.2-1.3
			c-0.1-0.3-0.3-0.5-0.4-0.8l-0.1-0.2c0,0,0,0.1,0,0.1c0,0.1,0,0.1,0,0.1c0,0.2-0.1,0.3-0.1,0.5c-0.1,0.5-0.1,0.9-0.6,1
			c-0.1,0-0.2,0.1-0.3,0.1c-0.4,0-0.8-0.3-1.2-0.8c-0.9-1.2-0.8-2.7-0.5-3.8c0.1-0.3,0.1-0.5,0.2-0.8c0-0.1,0.1-0.1,0.1-0.2
			c0.1-0.1,0.1-0.2,0.1-0.3c0-0.1-0.1-0.2-0.2-0.3c-0.1,0-0.1-0.1-0.1-0.1c-0.2-0.2-0.4-0.5-0.5-0.8c-0.2-0.4-0.4-0.8-0.6-1.3
			l-0.2-0.4c0-0.1-0.1-0.2-0.1-0.3c0-0.1-0.1-0.2-0.1-0.3c-0.2-0.3-0.3-0.5-0.6-0.7c-0.1-0.1-0.1-0.1-0.2-0.2
			c-0.1-0.1-0.1-0.1-0.2-0.2c-0.4-0.4-1-1.1-0.7-1.8c0.1-0.3,0.4-0.5,0.7-0.6C84.9,344.3,85,344.2,85.2,344.2 M85.2,343.2
			c-0.3,0-0.6,0-0.8,0.1c-0.6,0.2-1,0.6-1.3,1.1c-0.6,1.3,0.4,2.4,0.9,2.9l0.1,0.1c0,0,0.1,0.1,0.1,0.1c0.1,0.1,0.1,0.1,0.2,0.2
			c0.2,0.2,0.3,0.4,0.4,0.5c0,0,0,0.1,0,0.1c0,0.2,0.1,0.3,0.2,0.5l0.2,0.4c0.2,0.4,0.4,0.9,0.6,1.4c0.2,0.3,0.4,0.6,0.6,0.8
			c-0.1,0.3-0.2,0.6-0.2,0.9c-0.3,1.5-0.2,2.8,0.3,3.8c-0.1,0-0.3,0-0.4,0c-0.6,0-1.2,0.1-1.7,0.3c-0.5,0.1-2.5,0.8-3.6,3.2
			c-0.5,0.1-1,0.4-1.5,0.6c-1.2,0.7-2.8,2.1-3.2,4.7l0,0.1v0.1c0,0.5-0.2,2.8,1.3,4.6c1,1.2,2.5,2,4.4,2.1l0,0h0h8.8v2.8v0.4
			l0.2,0.3l0.1,0.2c0.4,0.4,1.9,1.8,7.2,1.8c4.6,0,6.7-1.4,6.9-1.6l0.2-0.2l0.4-0.3v-0.5v-11.3c0.1-0.2,0.2-0.6,0.3-0.8
			c0-0.1,0.1-0.5,0.1-0.8c0-0.1,0-0.4-0.2-0.7c0-0.1-0.1-0.2-0.4-0.4c0,0-0.2-0.1-0.3-0.2l-0.1-0.1c-0.3-0.4-0.7-0.7-1.1-1
			c0.3-0.1,1-0.2,1.2-0.9c0.2-0.4,0-0.9-0.4-1.3c-0.8-0.8-1.7-1.5-2.7-2c-0.4-0.2-0.9-0.4-1.4-0.7c-0.1-0.1-0.3-0.1-0.5-0.2l0,0l0,0
			c-0.1,0-0.2-0.1-0.3-0.1c-0.1-0.1-0.2-0.2-0.2-0.4c-0.1-0.1-0.1-0.2-0.2-0.3c-0.3-0.6-0.7-1.2-1.1-2.1c-0.1-0.2-0.2-0.3-0.2-0.5
			c-0.1-0.3-0.3-0.7-0.6-1c-1.4-2-3.3-3.6-5.5-4.7c-1.1-0.5-2.3-0.8-3.5-0.9c0,0,0,0,0,0c-0.1-0.1-0.3-0.2-0.4-0.3
			C87.5,343.8,86.3,343.2,85.2,343.2L85.2,343.2z M90,357.7c0.1-0.1,0.1-0.1,0.2-0.2c0.1,0.1,0.2,0.2,0.3,0.3c-0.1,0-0.2,0-0.3,0
			C90.2,357.8,90.1,357.8,90,357.7L90,357.7z"/>
	</g>
	<g>
		<path style="fill:none;" d="M92.6,368.3v2.4c0.4,0.3,1.8,1,5.5,1c3.1,0,4.8-0.7,5.4-1v-2.5c-1,0.4-2.7,0.9-5.4,0.9
			C95.2,369.1,93.5,368.7,92.6,368.3z"/>
		<path style="fill:none;" d="M98.1,364.7c3.7,0,5.4-1,5.4-1.3c0-0.3-1.7-1.3-5.4-1.3c-3.7,0-5.4,1-5.4,1.3
			C92.7,363.7,94.4,364.7,98.1,364.7z"/>
		<path style="fill:none;" d="M98.1,365.8c-1.5,0-3-0.2-4.4-0.6c-0.4-0.1-0.7-0.3-1.1-0.4v2.3c0.4,0.3,1.8,1,5.5,1
			c3.3,0,5-0.8,5.4-1l0-2.2c-0.3,0.2-0.7,0.3-1,0.4C101.1,365.6,99.6,365.8,98.1,365.8z"/>
		<path style="fill:none;" d="M92.6,372v2.2c0.4,0.3,1.8,1,5.5,1c3.1,0,4.8-0.7,5.4-1v-2.2c-1,0.4-2.7,0.9-5.4,0.9
			C95.2,372.8,93.5,372.3,92.6,372z"/>
		<path style="fill:#2C5967;" d="M81.9,361.7l0.4,0l0.1-0.4c0.7-2.3,2.3-2.6,2.3-2.7l0.1,0c2.7-0.8,4.2,1.3,4.3,1.4l0.2,0.3l0.4-0.1
			c1.6-0.4,2.6,0,3.2,0.6c0.1-0.1,0.3-0.1,0.4-0.1c0.3-0.1,0.5-0.1,0.8-0.2c-0.8-1-2.1-1.9-4.4-1.5c-1.3-1.5-3.4-2.1-5.4-1.5
			c-0.3,0.1-2.2,0.6-3.1,3.1c-0.6,0.1-1.2,0.3-1.8,0.6c-1,0.6-2.3,1.7-2.7,4v0c0,0.1-0.3,2.2,1.1,3.9c0.8,1,2.1,1.6,3.7,1.7h9v-1.2
			h-8.9c-1.3-0.1-2.2-0.5-2.9-1.3c-1-1.2-0.8-2.8-0.8-3C78.7,362,81.8,361.7,81.9,361.7z"/>
		<path style="fill:#2C5967;" d="M89,347.5c-0.1-0.1-0.2-0.1-0.3-0.1c-0.2,0-0.4,0-0.6,0v0h0c0.1,0.1,0.3,0.3,0.4,0.4
			c0.1,0.2,0.3,0.4,0.4,0.6c0.2-0.1,0.4-0.4,0.3-0.6C89.2,347.7,89.1,347.6,89,347.5z"/>
		<path style="fill:#2C5967;" d="M105,361.9c0-0.1-0.1-0.1-0.1-0.2c0-0.1-0.1-0.2-0.1-0.2c-0.1-0.1-0.1-0.1-0.2-0.2l-0.2-0.2
			c-0.4-0.5-0.9-0.9-1.5-1.2c-0.1-0.1-0.3-0.1-0.4-0.2c-0.4-0.2-1-0.5-1.2-0.8c0.3,0,0.5-0.1,0.8-0.2l0.1,0c0.2,0,0.5-0.1,0.7-0.1
			c0.2,0,0.5-0.1,0.7-0.1l0.2,0c0.2,0,0.5-0.1,0.5-0.2c0-0.1,0-0.2-0.1-0.3c-0.7-0.7-1.5-1.3-2.4-1.8c-0.4-0.2-0.8-0.4-1.3-0.6
			c-0.1,0-0.2-0.1-0.4-0.1c-0.3-0.1-0.6-0.2-0.8-0.4c-0.2-0.2-0.3-0.4-0.4-0.7c0-0.1-0.1-0.2-0.1-0.3c-0.4-0.6-0.8-1.3-1.2-2.1
			c-0.1-0.2-0.2-0.3-0.3-0.5c-0.1-0.3-0.3-0.6-0.5-0.9c-1.3-1.8-3.1-3.3-5.1-4.4c-1-0.5-2.2-0.8-3.3-0.8c-0.1-0.1-0.3-0.1-0.4-0.2
			c-0.1-0.1-0.2-0.1-0.3-0.2c-0.6-0.3-2-1-2.9-0.7c-0.3,0.1-0.5,0.3-0.7,0.6c-0.3,0.7,0.3,1.4,0.7,1.8c0.1,0.1,0.2,0.2,0.2,0.2
			c0.1,0.1,0.1,0.1,0.2,0.2c0.2,0.2,0.4,0.5,0.6,0.7c0,0.1,0.1,0.2,0.1,0.3c0,0.1,0.1,0.2,0.1,0.3l0.2,0.4c0.2,0.4,0.4,0.9,0.6,1.3
			c0.2,0.3,0.3,0.5,0.5,0.8c0,0,0.1,0.1,0.1,0.1c0.1,0.1,0.2,0.2,0.2,0.3c0,0.1-0.1,0.2-0.1,0.3c0,0.1-0.1,0.1-0.1,0.2
			c-0.1,0.3-0.2,0.5-0.2,0.8c-0.2,1.1-0.3,2.6,0.5,3.8c0.5,0.7,1,0.9,1.6,0.7c0.5-0.2,0.6-0.6,0.6-1c0-0.2,0-0.3,0.1-0.5
			c0,0,0-0.1,0-0.1c0,0,0-0.1,0-0.1l0.1,0.2c0.2,0.3,0.3,0.5,0.4,0.8c0.3,0.5,0.7,1,1.2,1.3l0,0c0.5,0.4,1.1,0.9,1.7,1.1l0.1,0v-0.2
			h-0.1c-0.1-0.1-0.1-0.1-0.2-0.2c0,0-0.1,0-0.1-0.1c-0.3-0.2-0.5-0.5-0.7-0.7c-0.6-0.7-1.1-1.4-1.6-2.2c-0.2-0.3-0.4-0.7-0.6-1.1
			l0-0.1c0-0.1-0.1-0.1-0.1-0.2c0-0.1-0.1-0.2-0.2-0.3l0,0l0,0c-0.1,0.1-0.2,0.2-0.2,0.3c-0.2,0.2-0.3,0.4-0.4,0.6
			c-0.2,0.5-0.3,0.9-0.3,1.4c0,0.1,0,0.3-0.1,0.4h0c-0.4-0.1-0.5-0.4-0.7-0.7l0-0.1c-0.4-0.9-0.5-2.3-0.1-3.2c0,0,0-0.1,0.1-0.2
			c0.2-0.5,0.4-0.9,0.3-1.2c-0.1-0.1-0.2-0.3-0.3-0.4c-0.1-0.1-0.1-0.1-0.2-0.2c-0.2-0.2-0.4-0.5-0.5-0.8c-0.2-0.3-0.3-0.7-0.4-1
			c-0.1-0.4-0.3-0.8-0.5-1.1c-0.2-0.3-0.4-0.5-0.6-0.8l-0.1-0.2c-0.1-0.1-0.2-0.2-0.2-0.3c-0.3-0.3-0.7-0.7-0.6-1.1
			c0-0.1,0.1-0.2,0.2-0.2c0.5-0.2,1.5,0.3,2,0.7c0.1,0,0.1,0.1,0.2,0.1c0.2,0.1,0.3,0.2,0.5,0.3c0.3,0.1,0.5,0.2,0.8,0.1
			c0.1,0,0.3,0,0.4,0c0.4,0,0.8,0.1,1.2,0.3c0.8,0.3,1.6,0.6,2.4,1.1c1.4,1,2.7,2.2,3.6,3.7c0.1,0.1,0.2,0.3,0.2,0.5
			c0.1,0.1,0.1,0.2,0.2,0.4c0.2,0.3,0.3,0.6,0.5,1c0.2,0.3,0.3,0.6,0.5,0.8l0.1,0.2c0.3,0.5,0.6,1,0.9,1.5c0.2,0.2,0.6,0.3,1,0.4
			c0.2,0,0.3,0.1,0.4,0.1c0.6,0.2,1.2,0.5,1.8,0.8c0.3,0.2,0.6,0.3,0.9,0.5c0,0,0.1,0.1,0.2,0.1c0.2,0.1,0.3,0.2,0.5,0.4
			c-1.1,0-2,0.1-2.7,0.3c-0.1,0-0.1,0-0.2,0c-0.2,0-0.4,0.1-0.4,0.3v0l0,0c0.1,0.1,0.1,0.1,0.1,0.2c0,0.1,0.1,0.1,0.1,0.2
			c0.2,0.3,0.5,0.6,0.8,0.8c0.3,0.2,0.6,0.4,0.9,0.6c0.3,0.1,0.6,0.3,0.9,0.4c0.3,0.1,0.6,0.2,0.9,0.4c0.2,0.1,0.4,0.2,0.5,0.3
			c0.1,0.1,0.3,0.2,0.4,0.2c0.1,0,0.1,0.1,0.2,0.1c0.1,0.1,0.2,0.2,0.3,0.2l0.1,0L105,361.9L105,361.9z"/>
		<path style="fill:#2C5967;" d="M102.5,361.6c-1.4-0.4-2.9-0.6-4.4-0.6c-1.5,0-3,0.2-4.4,0.6c-1.8,0.5-2.1,1.3-2.1,1.8h0v11.2
			l0.1,0.2c0.1,0.2,1.4,1.5,6.4,1.5c4.4,0,6.2-1.3,6.3-1.4l0.2-0.2v-11.5h0C104.5,362.7,104.1,362.1,102.5,361.6z M98.1,362.1
			c3.7,0,5.4,1,5.4,1.3c0,0.3-1.7,1.3-5.4,1.3c-3.7,0-5.4-1-5.4-1.3C92.7,363.1,94.4,362.1,98.1,362.1z M103.5,374.1
			c-0.6,0.3-2.3,1-5.4,1c-3.7,0-5.1-0.7-5.5-1V372c0.9,0.4,2.5,0.8,5.5,0.8c2.7,0,4.4-0.5,5.4-0.9V374.1z M103.5,370.6
			c-0.6,0.3-2.3,1-5.4,1c-3.7,0-5.1-0.7-5.5-1v-2.4c0.9,0.4,2.5,0.8,5.5,0.8c2.7,0,4.4-0.5,5.4-0.9V370.6z M103.5,367
			c-0.4,0.2-2.1,1-5.4,1c-3.7,0-5.1-0.7-5.5-1v-2.3c0.3,0.2,0.7,0.3,1.1,0.4c1.4,0.4,2.9,0.6,4.4,0.6c1.5,0,3-0.2,4.4-0.6
			c0.4-0.1,0.7-0.2,1-0.4L103.5,367z"/>
	</g>
</g>
<g>
	<g>
		<path style="fill:#FFFFFF;" d="M196.2,412c-5.2,0-6.6-1.4-6.8-1.7l-0.2-0.3v-3.5h-9.3c-1.8-0.1-3.2-0.8-4.1-1.9
			c-1.5-1.8-1.2-4.2-1.2-4.3c0.4-2.5,1.9-3.8,3-4.4c0.5-0.3,1.1-0.5,1.6-0.6c1-2.5,3-3.1,3.4-3.2c0.5-0.2,1-0.2,1.6-0.2
			c0.5,0,1,0.1,1.4,0.2c-0.1-0.1-0.1-0.2-0.2-0.2c-1-1.3-0.9-3-0.6-4.2c0.1-0.3,0.1-0.6,0.2-0.9c0-0.1,0.1-0.2,0.1-0.3
			c-0.1,0-0.1-0.1-0.1-0.1c-0.2-0.3-0.4-0.6-0.6-0.9c-0.2-0.4-0.4-0.9-0.6-1.3l-0.2-0.4c-0.1-0.1-0.1-0.3-0.1-0.4
			c0-0.1-0.1-0.2-0.1-0.2c-0.1-0.2-0.3-0.4-0.5-0.6c-0.1-0.1-0.1-0.1-0.2-0.2l-0.1-0.1c-0.5-0.5-1.3-1.4-0.8-2.4
			c0.2-0.4,0.5-0.7,1-0.8c0.2-0.1,0.4-0.1,0.7-0.1c1,0,2.1,0.5,2.6,0.8c0.1,0.1,0.2,0.2,0.3,0.2c0.1,0,0.1,0.1,0.2,0.1
			c1.2,0,2.4,0.3,3.4,0.8c2.1,1.1,3.9,2.6,5.3,4.5c0.2,0.3,0.4,0.6,0.5,1c0.1,0.1,0.1,0.3,0.2,0.5c0.4,0.9,0.8,1.6,1.2,2.1
			c0.1,0.1,0.1,0.2,0.2,0.3c0.1,0.2,0.2,0.4,0.3,0.5c0.2,0.1,0.4,0.2,0.6,0.3c0.2,0.1,0.4,0.1,0.5,0.2c0.5,0.2,1,0.4,1.4,0.7
			c0.9,0.5,1.8,1.1,2.5,1.9c0.3,0.3,0.3,0.7,0.2,0.8c-0.1,0.4-0.6,0.5-0.9,0.5l-0.2,0c-0.2,0-0.5,0.1-0.8,0.1c-0.1,0-0.3,0-0.4,0
			c0,0,0.3,0.1,0.3,0.1c0.1,0.1,0.3,0.1,0.4,0.2c0.6,0.4,1.1,0.8,1.6,1.3l0.4,0.3c0.2,0.2,0.3,0.3,0.3,0.3c0.1,0.1,0.1,0.4,0.1,0.4
			c0,0.2-0.1,0.6-0.1,0.6c0,0.2-0.2,0.6-0.3,0.8v11.6l-0.4,0.3C202.6,410.7,200.7,412,196.2,412z M189.1,393.6c0.4,0,0.8,0,1.1,0.1
			c-0.2-0.2-0.4-0.3-0.6-0.5l-0.1-0.1c-0.5-0.4-0.9-0.8-1.2-1.3c-0.1,0.4-0.3,0.7-0.8,0.9c-0.1,0-0.2,0.1-0.3,0.1
			c0.4,0.2,0.7,0.5,1,0.8C188.5,393.6,188.8,393.6,189.1,393.6z"/>
		<path style="fill:#FFFFFF;" d="M183.4,379.5c0.9,0,1.9,0.5,2.4,0.8c0.1,0.1,0.2,0.1,0.3,0.2c0.1,0.1,0.2,0.2,0.4,0.2
			c1.2,0,2.3,0.3,3.3,0.8c2,1,3.8,2.5,5.1,4.4c0.2,0.3,0.3,0.6,0.5,0.9c0.1,0.2,0.2,0.3,0.3,0.5c0.4,0.8,0.8,1.5,1.2,2.1
			c0.1,0.1,0.1,0.2,0.1,0.3c0.1,0.2,0.3,0.5,0.4,0.7c0.2,0.2,0.5,0.3,0.8,0.4c0.1,0,0.3,0.1,0.4,0.1c0.5,0.2,0.9,0.4,1.3,0.6
			c0.9,0.5,1.7,1.1,2.4,1.8c0.1,0.1,0.1,0.2,0.1,0.3c-0.1,0.1-0.3,0.2-0.5,0.2l-0.2,0c-0.2,0-0.5,0.1-0.7,0.1c-0.2,0-0.5,0-0.7,0.1
			l-0.1,0c-0.3,0.1-0.5,0.1-0.8,0.2c0.2,0.3,0.7,0.6,1.2,0.8c0.2,0.1,0.3,0.2,0.4,0.2c0.6,0.3,1.1,0.8,1.5,1.2l0.2,0.2
			c0.1,0.1,0.2,0.2,0.2,0.2s0.1,0.1,0.2,0.2c0,0.1,0.1,0.2,0.1,0.2c0,0.1,0,0.4-0.1,0.5c-0.1,0.2-0.3,0.9-0.3,0.9v11.5l-0.2,0.2
			c-0.1,0.1-1.9,1.4-6.3,1.4c-5.1,0-6.3-1.3-6.4-1.5l-0.1-0.2v-3.8h-9.8c-1.6-0.1-2.9-0.7-3.7-1.7c-1.3-1.6-1.1-3.8-1.1-3.9v0
			c0.4-2.3,1.7-3.4,2.7-4c0.5-0.3,1.1-0.5,1.8-0.6c0.9-2.5,2.8-3.1,3.1-3.1c0.5-0.1,1-0.2,1.5-0.2c1.5,0,2.9,0.6,3.9,1.8
			c0.4-0.1,0.7-0.1,1.1-0.1c1,0,1.8,0.3,2.5,0.8v-1c-0.6-0.2-1.2-0.7-1.7-1.1l0,0c-0.5-0.4-0.9-0.8-1.2-1.3
			c-0.1-0.3-0.3-0.5-0.4-0.8l-0.1-0.2c0,0,0,0.1,0,0.1c0,0.1,0,0.1,0,0.1c0,0.2-0.1,0.3-0.1,0.5c-0.1,0.5-0.1,0.9-0.6,1
			c-0.1,0-0.2,0.1-0.3,0.1c-0.4,0-0.8-0.3-1.2-0.8c-0.9-1.2-0.8-2.7-0.5-3.8c0.1-0.3,0.1-0.5,0.2-0.8c0-0.1,0.1-0.1,0.1-0.2
			c0.1-0.1,0.1-0.2,0.1-0.3c0-0.1-0.1-0.2-0.2-0.3c-0.1,0-0.1-0.1-0.1-0.1c-0.2-0.2-0.4-0.5-0.5-0.8c-0.2-0.4-0.4-0.8-0.6-1.3
			l-0.2-0.4c0-0.1-0.1-0.2-0.1-0.3c0-0.1-0.1-0.2-0.1-0.3c-0.2-0.3-0.3-0.5-0.6-0.7c-0.1-0.1-0.1-0.1-0.2-0.2
			c-0.1-0.1-0.1-0.1-0.2-0.2c-0.4-0.4-1-1.1-0.7-1.8c0.1-0.3,0.4-0.5,0.7-0.6C183,379.5,183.2,379.5,183.4,379.5 M183.4,378.5
			c-0.3,0-0.6,0-0.8,0.1c-0.6,0.2-1,0.6-1.3,1.1c-0.6,1.3,0.4,2.4,0.9,2.9l0.1,0.1c0,0,0.1,0.1,0.1,0.1c0.1,0.1,0.1,0.1,0.2,0.2
			c0.2,0.2,0.3,0.4,0.4,0.5c0,0,0,0.1,0,0.1c0,0.2,0.1,0.3,0.2,0.5l0.2,0.4c0.2,0.4,0.4,0.9,0.6,1.4c0.2,0.3,0.4,0.6,0.6,0.8
			c-0.1,0.3-0.2,0.6-0.2,0.9c-0.3,1.5-0.2,2.8,0.3,3.8c-0.1,0-0.3,0-0.4,0c-0.6,0-1.2,0.1-1.7,0.3c-0.5,0.1-2.5,0.8-3.6,3.2
			c-0.5,0.1-1,0.4-1.5,0.6c-1.2,0.7-2.8,2.1-3.2,4.7l0,0.1v0.1c0,0.5-0.2,2.8,1.3,4.6c1,1.2,2.5,2,4.4,2.1l0,0h0h8.8v2.8v0.4
			l0.2,0.3l0.1,0.2c0.4,0.4,1.9,1.8,7.2,1.8c4.6,0,6.7-1.4,6.9-1.6l0.2-0.2l0.4-0.3v-0.5v-11.3c0.1-0.2,0.2-0.6,0.3-0.8
			c0-0.1,0.1-0.5,0.1-0.8c0-0.1,0-0.4-0.2-0.7c0-0.1-0.1-0.2-0.4-0.5c0,0-0.2-0.1-0.3-0.2l-0.1-0.1c-0.3-0.4-0.7-0.7-1.1-1
			c0.3-0.1,1-0.2,1.2-0.9c0.2-0.4,0-0.9-0.4-1.3c-0.8-0.8-1.7-1.5-2.7-2c-0.4-0.2-0.9-0.4-1.4-0.7c-0.1-0.1-0.3-0.1-0.5-0.2l0,0l0,0
			c-0.1,0-0.2-0.1-0.3-0.1c-0.1-0.1-0.2-0.2-0.2-0.4c-0.1-0.1-0.1-0.2-0.2-0.3c-0.3-0.6-0.7-1.2-1.1-2.1c-0.1-0.2-0.2-0.3-0.2-0.5
			c-0.1-0.3-0.3-0.7-0.6-1c-1.4-2-3.3-3.6-5.5-4.7c-1.1-0.5-2.3-0.8-3.5-0.9c0,0,0,0,0,0c-0.1-0.1-0.3-0.2-0.4-0.3
			C185.6,379.1,184.4,378.5,183.4,378.5L183.4,378.5z M188.2,393c0.1-0.1,0.1-0.1,0.2-0.2c0.1,0.1,0.2,0.2,0.3,0.3
			c-0.1,0-0.2,0-0.3,0C188.3,393.1,188.2,393,188.2,393L188.2,393z"/>
	</g>
	<g>
		<path style="fill:none;" d="M190.8,403.5v2.4c0.4,0.3,1.8,1,5.5,1c3.1,0,4.8-0.7,5.4-1v-2.5c-1,0.4-2.7,0.9-5.4,0.9
			C193.3,404.3,191.7,403.9,190.8,403.5z"/>
		<path style="fill:none;" d="M196.2,399.9c3.7,0,5.4-1,5.4-1.3c0-0.3-1.7-1.3-5.4-1.3c-3.7,0-5.4,1-5.4,1.3
			C190.8,398.9,192.5,399.9,196.2,399.9z"/>
		<path style="fill:none;" d="M196.2,401c-1.5,0-3-0.2-4.4-0.6c-0.4-0.1-0.7-0.3-1.1-0.4v2.3c0.4,0.3,1.8,1,5.5,1c3.3,0,5-0.8,5.4-1
			l0-2.2c-0.3,0.2-0.7,0.3-1,0.4C199.2,400.9,197.7,401,196.2,401z"/>
		<path style="fill:none;" d="M190.8,407.2v2.2c0.4,0.3,1.8,1,5.5,1c3.1,0,4.8-0.7,5.4-1v-2.2c-1,0.4-2.7,0.9-5.4,0.9
			C193.3,408,191.7,407.6,190.8,407.2z"/>
		<path style="fill:#2C5967;" d="M180,396.9l0.4,0l0.1-0.4c0.7-2.3,2.3-2.6,2.3-2.7l0.1,0c2.7-0.8,4.2,1.3,4.3,1.4l0.2,0.3l0.4-0.1
			c1.6-0.4,2.6,0,3.2,0.6c0.1-0.1,0.3-0.1,0.4-0.1c0.3-0.1,0.5-0.1,0.8-0.2c-0.8-1-2.1-1.9-4.4-1.5c-1.3-1.5-3.4-2.1-5.4-1.5
			c-0.3,0.1-2.2,0.6-3.1,3.1c-0.6,0.1-1.2,0.3-1.8,0.6c-1,0.6-2.3,1.7-2.7,4v0c0,0.1-0.3,2.2,1.1,3.9c0.8,1,2.1,1.6,3.7,1.7h9v-1.2
			h-8.9c-1.3-0.1-2.2-0.5-2.9-1.3c-1-1.2-0.8-2.8-0.8-3C176.8,397.2,179.9,397,180,396.9z"/>
		<path style="fill:#2C5967;" d="M187.2,382.7c-0.1-0.1-0.2-0.1-0.3-0.1c-0.2,0-0.4,0-0.6,0v0h0c0.1,0.1,0.3,0.3,0.4,0.4
			c0.1,0.2,0.3,0.4,0.4,0.6c0.2-0.1,0.4-0.4,0.3-0.6C187.4,382.9,187.3,382.8,187.2,382.7z"/>
		<path style="fill:#2C5967;" d="M203.1,397.1c0-0.1-0.1-0.1-0.1-0.2c0-0.1-0.1-0.2-0.1-0.2c-0.1-0.1-0.1-0.1-0.2-0.2l-0.2-0.2
			c-0.4-0.5-0.9-0.9-1.5-1.2c-0.1-0.1-0.3-0.1-0.4-0.2c-0.4-0.2-1-0.5-1.2-0.8c0.3,0,0.5-0.1,0.8-0.2l0.1,0c0.2,0,0.5-0.1,0.7-0.1
			c0.2,0,0.5-0.1,0.7-0.1l0.2,0c0.2,0,0.5-0.1,0.5-0.2c0-0.1,0-0.2-0.1-0.3c-0.7-0.7-1.5-1.3-2.4-1.8c-0.4-0.2-0.8-0.4-1.3-0.6
			c-0.1,0-0.2-0.1-0.4-0.1c-0.3-0.1-0.6-0.2-0.8-0.4c-0.2-0.2-0.3-0.4-0.4-0.7c0-0.1-0.1-0.2-0.1-0.3c-0.4-0.6-0.8-1.3-1.2-2.1
			c-0.1-0.2-0.2-0.3-0.3-0.5c-0.1-0.3-0.3-0.6-0.5-0.9c-1.3-1.8-3.1-3.3-5.1-4.4c-1-0.5-2.2-0.8-3.3-0.8c-0.1-0.1-0.3-0.1-0.4-0.2
			c-0.1-0.1-0.2-0.1-0.3-0.2c-0.6-0.3-2-1-2.9-0.7c-0.3,0.1-0.5,0.3-0.7,0.6c-0.3,0.7,0.3,1.4,0.7,1.8c0.1,0.1,0.2,0.2,0.2,0.2
			c0.1,0.1,0.1,0.1,0.2,0.2c0.2,0.2,0.4,0.5,0.6,0.7c0,0.1,0.1,0.2,0.1,0.3c0,0.1,0.1,0.2,0.1,0.3l0.2,0.4c0.2,0.4,0.4,0.9,0.6,1.3
			c0.2,0.3,0.3,0.5,0.5,0.8c0,0,0.1,0.1,0.1,0.1c0.1,0.1,0.2,0.2,0.2,0.3c0,0.1-0.1,0.2-0.1,0.3c0,0.1-0.1,0.1-0.1,0.2
			c-0.1,0.3-0.2,0.5-0.2,0.8c-0.2,1.1-0.3,2.6,0.5,3.8c0.5,0.7,1,0.9,1.6,0.7c0.5-0.2,0.6-0.6,0.6-1c0-0.2,0-0.3,0.1-0.5
			c0,0,0-0.1,0-0.1c0,0,0-0.1,0-0.1l0.1,0.2c0.2,0.3,0.3,0.5,0.4,0.8c0.3,0.5,0.7,1,1.2,1.3l0,0c0.5,0.4,1.1,0.9,1.7,1.1l0.1,0v-0.2
			h-0.1c-0.1-0.1-0.1-0.1-0.2-0.2c0,0-0.1,0-0.1-0.1c-0.3-0.2-0.5-0.5-0.7-0.7c-0.6-0.7-1.1-1.4-1.6-2.2c-0.2-0.3-0.4-0.7-0.6-1.1
			l0-0.1c0-0.1-0.1-0.1-0.1-0.2c0-0.1-0.1-0.2-0.2-0.3l0,0l0,0c-0.1,0.1-0.2,0.2-0.2,0.3c-0.2,0.2-0.3,0.4-0.4,0.6
			c-0.2,0.5-0.3,0.9-0.3,1.4c0,0.1,0,0.3-0.1,0.4h0c-0.4-0.1-0.5-0.4-0.7-0.7l0-0.1c-0.4-0.9-0.5-2.3-0.1-3.2c0,0,0-0.1,0.1-0.2
			c0.2-0.5,0.4-0.9,0.3-1.2c-0.1-0.1-0.2-0.3-0.3-0.4c-0.1-0.1-0.1-0.1-0.2-0.2c-0.2-0.2-0.4-0.5-0.5-0.8c-0.2-0.3-0.3-0.7-0.4-1
			c-0.1-0.4-0.3-0.8-0.5-1.1c-0.2-0.3-0.4-0.5-0.6-0.8l-0.1-0.2c-0.1-0.1-0.2-0.2-0.2-0.3c-0.3-0.3-0.7-0.7-0.6-1.1
			c0-0.1,0.1-0.2,0.2-0.2c0.5-0.2,1.5,0.3,2,0.7c0.1,0,0.1,0.1,0.2,0.1c0.2,0.1,0.3,0.2,0.5,0.3c0.3,0.1,0.5,0.2,0.8,0.1
			c0.1,0,0.3,0,0.4,0c0.4,0,0.8,0.1,1.2,0.3c0.8,0.3,1.6,0.6,2.4,1.1c1.4,1,2.7,2.2,3.6,3.7c0.1,0.1,0.2,0.3,0.2,0.5
			c0.1,0.1,0.1,0.2,0.2,0.4c0.2,0.3,0.3,0.6,0.5,1c0.2,0.3,0.3,0.6,0.5,0.8l0.1,0.2c0.3,0.5,0.6,1,0.9,1.5c0.2,0.2,0.6,0.3,1,0.4
			c0.2,0,0.3,0.1,0.4,0.1c0.6,0.2,1.2,0.5,1.8,0.8c0.3,0.2,0.6,0.3,0.9,0.5c0,0,0.1,0.1,0.2,0.1c0.2,0.1,0.3,0.2,0.5,0.4
			c-1.1,0-2,0.1-2.7,0.3c-0.1,0-0.1,0-0.2,0c-0.2,0-0.4,0.1-0.4,0.3v0l0,0c0.1,0.1,0.1,0.1,0.1,0.2c0,0.1,0.1,0.1,0.1,0.2
			c0.2,0.3,0.5,0.6,0.8,0.8c0.3,0.2,0.6,0.4,0.9,0.6c0.3,0.1,0.6,0.3,0.9,0.4c0.3,0.1,0.6,0.2,0.9,0.4c0.2,0.1,0.4,0.2,0.5,0.3
			c0.1,0.1,0.3,0.2,0.4,0.2c0.1,0,0.1,0.1,0.2,0.1c0.1,0.1,0.2,0.2,0.3,0.2l0.1,0L203.1,397.1L203.1,397.1z"/>
		<path style="fill:#2C5967;" d="M200.6,396.8c-1.4-0.4-2.9-0.6-4.4-0.6c-1.5,0-3,0.2-4.4,0.6c-1.8,0.5-2.1,1.3-2.1,1.8h0v11.2
			l0.1,0.2c0.1,0.2,1.4,1.5,6.4,1.5c4.4,0,6.2-1.3,6.3-1.4l0.2-0.2v-11.5h0C202.7,398,202.2,397.3,200.6,396.8z M196.2,397.4
			c3.7,0,5.4,1,5.4,1.3c0,0.3-1.7,1.3-5.4,1.3c-3.7,0-5.4-1-5.4-1.3C190.8,398.3,192.5,397.4,196.2,397.4z M201.7,409.4
			c-0.6,0.3-2.3,1-5.4,1c-3.7,0-5.1-0.7-5.5-1v-2.2c0.9,0.4,2.5,0.8,5.5,0.8c2.7,0,4.4-0.5,5.4-0.9V409.4z M201.7,405.9
			c-0.6,0.3-2.3,1-5.4,1c-3.7,0-5.1-0.7-5.5-1v-2.4c0.9,0.4,2.5,0.8,5.5,0.8c2.7,0,4.4-0.5,5.4-0.9V405.9z M201.7,402.2
			c-0.4,0.2-2.1,1-5.4,1c-3.7,0-5.1-0.7-5.5-1V400c0.3,0.2,0.7,0.3,1.1,0.4c1.4,0.4,2.9,0.6,4.4,0.6c1.5,0,3-0.2,4.4-0.6
			c0.4-0.1,0.7-0.2,1-0.4L201.7,402.2z"/>
	</g>
</g>
<g>
	<g>
		<path style="fill:#FFFFFF;" d="M291.6,375.7c-5.2,0-6.6-1.4-6.8-1.7l-0.2-0.3v-3.5h-9.3c-1.8-0.1-3.2-0.8-4.1-1.9
			c-1.5-1.8-1.2-4.2-1.2-4.3c0.4-2.5,1.9-3.8,3-4.4c0.5-0.3,1.1-0.5,1.6-0.6c1-2.5,3-3.1,3.4-3.2c0.5-0.2,1-0.2,1.6-0.2
			c0.5,0,1,0.1,1.4,0.2c-0.1-0.1-0.1-0.2-0.2-0.2c-1-1.3-0.9-3-0.6-4.2c0.1-0.3,0.1-0.6,0.2-0.9c0-0.1,0.1-0.2,0.1-0.2
			c-0.1,0-0.1-0.1-0.1-0.1c-0.2-0.3-0.4-0.6-0.6-0.9c-0.2-0.4-0.5-0.9-0.6-1.3l-0.2-0.4c-0.1-0.1-0.1-0.3-0.1-0.4
			c0-0.1-0.1-0.2-0.1-0.2c-0.1-0.2-0.3-0.4-0.5-0.6c-0.1-0.1-0.1-0.2-0.2-0.2c0,0-0.1-0.1-0.1-0.2c-0.5-0.5-1.3-1.4-0.8-2.4
			c0.2-0.4,0.5-0.7,1-0.8c0.2-0.1,0.4-0.1,0.7-0.1c1,0,2.1,0.5,2.6,0.8c0.1,0.1,0.2,0.2,0.3,0.2c0.1,0,0.1,0.1,0.2,0.1
			c1.2,0,2.4,0.3,3.4,0.8c2.1,1.1,3.9,2.6,5.3,4.5c0.2,0.3,0.4,0.6,0.5,1c0.1,0.1,0.1,0.3,0.2,0.5c0.4,0.9,0.8,1.5,1.2,2.1
			c0.1,0.1,0.1,0.2,0.2,0.3c0.1,0.2,0.2,0.4,0.3,0.5c0.2,0.1,0.4,0.2,0.6,0.3c0.2,0.1,0.4,0.1,0.5,0.2c0.5,0.2,1,0.4,1.4,0.7
			c0.9,0.5,1.8,1.1,2.5,1.9c0.3,0.3,0.3,0.7,0.2,0.8c-0.1,0.4-0.6,0.5-0.9,0.5l-0.2,0c-0.3,0-0.5,0.1-0.8,0.1c-0.1,0-0.3,0-0.4,0
			c0,0,0.3,0.1,0.3,0.1c0.1,0.1,0.3,0.1,0.4,0.2c0.6,0.4,1.1,0.8,1.6,1.3l0.1,0.1c0.1,0.1,0.2,0.2,0.2,0.2c0.2,0.2,0.3,0.3,0.3,0.3
			c0.1,0.1,0.1,0.3,0.1,0.5c0,0.2-0.1,0.6-0.1,0.6c0,0.2-0.2,0.6-0.3,0.8v11.6l-0.4,0.3C298,374.4,296.1,375.7,291.6,375.7z
			 M284.4,357.3c0.4,0,0.8,0,1.1,0.1c-0.2-0.2-0.4-0.3-0.6-0.5c-0.5-0.4-1-0.8-1.3-1.3c-0.1,0.4-0.3,0.7-0.8,0.9
			c-0.1,0-0.2,0.1-0.3,0.1c0.3,0.2,0.7,0.5,1,0.8C283.8,357.3,284.1,357.3,284.4,357.3z"/>
		<path style="fill:#FFFFFF;" d="M278.7,343.2c0.9,0,1.9,0.5,2.4,0.8c0.1,0.1,0.2,0.1,0.3,0.2c0.1,0.1,0.2,0.2,0.4,0.2
			c1.2,0,2.3,0.3,3.3,0.8c2,1,3.8,2.5,5.1,4.4c0.2,0.3,0.3,0.6,0.5,0.9c0.1,0.2,0.2,0.3,0.3,0.5c0.4,0.8,0.8,1.5,1.2,2.1
			c0.1,0.1,0.1,0.2,0.1,0.3c0.1,0.2,0.3,0.5,0.4,0.7c0.2,0.2,0.5,0.3,0.8,0.4c0.1,0,0.3,0.1,0.4,0.1c0.5,0.2,0.9,0.4,1.3,0.6
			c0.9,0.5,1.7,1.1,2.4,1.8c0.1,0.1,0.1,0.2,0.1,0.3c-0.1,0.1-0.3,0.2-0.5,0.2l-0.2,0c-0.2,0-0.5,0.1-0.7,0.1c-0.2,0-0.5,0-0.7,0.1
			l-0.1,0c-0.3,0.1-0.5,0.1-0.8,0.2c0.2,0.3,0.7,0.6,1.2,0.8c0.2,0.1,0.3,0.2,0.4,0.2c0.6,0.3,1.1,0.8,1.5,1.2l0.2,0.2
			c0.1,0.1,0.2,0.2,0.2,0.2s0.1,0.1,0.2,0.2c0,0.1,0.1,0.2,0.1,0.2c0,0.1,0,0.4-0.1,0.5c-0.1,0.2-0.3,0.9-0.3,0.9v11.5l-0.2,0.2
			c-0.1,0.1-1.9,1.4-6.3,1.4c-5.1,0-6.3-1.3-6.4-1.5l-0.1-0.2v-3.8h-9.8c-1.6-0.1-2.9-0.7-3.7-1.7c-1.3-1.6-1.1-3.8-1.1-3.9v0
			c0.4-2.3,1.7-3.4,2.7-4c0.5-0.3,1.1-0.5,1.8-0.6c0.9-2.5,2.8-3.1,3.1-3.1c0.5-0.1,1-0.2,1.5-0.2c1.5,0,2.9,0.6,3.9,1.8
			c0.4-0.1,0.7-0.1,1.1-0.1c1,0,1.8,0.3,2.5,0.8v-1c-0.6-0.2-1.2-0.7-1.7-1.1l0,0c-0.5-0.4-0.9-0.8-1.2-1.3
			c-0.1-0.3-0.3-0.5-0.4-0.8l-0.1-0.2c0,0,0,0.1,0,0.1c0,0.1,0,0.1,0,0.1c0,0.2-0.1,0.3-0.1,0.5c-0.1,0.5-0.1,0.9-0.6,1
			c-0.1,0-0.2,0.1-0.3,0.1c-0.4,0-0.8-0.3-1.2-0.8c-0.9-1.2-0.8-2.7-0.5-3.8c0.1-0.3,0.1-0.5,0.2-0.8c0-0.1,0.1-0.1,0.1-0.2
			c0.1-0.1,0.1-0.2,0.1-0.3c0-0.1-0.1-0.2-0.2-0.3c-0.1,0-0.1-0.1-0.1-0.1c-0.2-0.2-0.4-0.5-0.5-0.8c-0.2-0.4-0.4-0.8-0.6-1.3
			l-0.2-0.4c0-0.1-0.1-0.2-0.1-0.3c0-0.1-0.1-0.2-0.1-0.3c-0.2-0.3-0.3-0.5-0.6-0.7c-0.1-0.1-0.1-0.1-0.2-0.2
			c-0.1-0.1-0.1-0.1-0.2-0.2c-0.4-0.4-1-1.1-0.7-1.8c0.1-0.3,0.4-0.5,0.7-0.6C278.3,343.2,278.5,343.2,278.7,343.2 M278.7,342.2
			c-0.3,0-0.6,0-0.8,0.1c-0.6,0.2-1,0.6-1.3,1.1c-0.6,1.3,0.4,2.4,0.9,2.9l0.1,0.1c0,0,0.1,0.1,0.1,0.1c0.1,0.1,0.1,0.1,0.2,0.2
			c0.2,0.2,0.3,0.4,0.4,0.5c0,0,0,0.1,0,0.1c0,0.2,0.1,0.3,0.2,0.5l0.2,0.4c0.2,0.4,0.4,0.9,0.6,1.4c0.2,0.3,0.4,0.6,0.6,0.8
			c-0.1,0.3-0.2,0.6-0.2,0.9c-0.3,1.5-0.2,2.8,0.3,3.8c-0.1,0-0.3,0-0.4,0c-0.6,0-1.2,0.1-1.7,0.3c-0.5,0.1-2.5,0.8-3.6,3.2
			c-0.5,0.1-1,0.4-1.5,0.6c-1.2,0.7-2.8,2.1-3.2,4.7l0,0.1v0.1c0,0.5-0.2,2.8,1.3,4.6c1,1.2,2.5,2,4.4,2.1l0,0h0h8.8v2.8v0.4
			l0.2,0.3l0.1,0.2c0.4,0.4,1.9,1.8,7.2,1.8c4.6,0,6.7-1.4,6.9-1.6l0.2-0.2l0.4-0.3v-0.5v-11.3c0.1-0.2,0.2-0.6,0.3-0.8
			c0-0.1,0.1-0.5,0.1-0.8c0-0.1,0-0.4-0.2-0.7c0-0.1-0.1-0.2-0.4-0.5c0,0-0.2-0.1-0.3-0.2l-0.1-0.1c-0.3-0.4-0.7-0.7-1.1-1
			c0.3-0.1,1-0.2,1.2-0.9c0.2-0.4,0-0.9-0.4-1.3c-0.8-0.8-1.7-1.5-2.7-2c-0.4-0.2-0.9-0.4-1.4-0.7c-0.1-0.1-0.3-0.1-0.5-0.2l0,0l0,0
			c-0.1,0-0.2-0.1-0.3-0.1c-0.1-0.1-0.2-0.2-0.2-0.4c-0.1-0.1-0.1-0.2-0.2-0.3c-0.3-0.6-0.7-1.2-1.1-2.1c-0.1-0.2-0.2-0.3-0.2-0.5
			c-0.1-0.3-0.3-0.7-0.6-1c-1.4-2-3.3-3.6-5.5-4.7c-1.1-0.5-2.3-0.8-3.5-0.9c0,0,0,0,0,0c-0.1-0.1-0.3-0.2-0.4-0.3
			C281,342.7,279.8,342.2,278.7,342.2L278.7,342.2z M283.5,356.7c0.1-0.1,0.1-0.1,0.2-0.2c0.1,0.1,0.2,0.2,0.3,0.3
			c-0.1,0-0.2,0-0.3,0C283.7,356.8,283.6,356.7,283.5,356.7L283.5,356.7z"/>
	</g>
	<g>
		<path style="fill:none;" d="M286.1,367.2v2.4c0.4,0.3,1.8,1,5.5,1c3.1,0,4.8-0.7,5.4-1v-2.5c-1,0.4-2.7,0.9-5.4,0.9
			C288.7,368,287,367.6,286.1,367.2z"/>
		<path style="fill:none;" d="M291.6,363.6c3.7,0,5.4-1,5.4-1.3c0-0.3-1.7-1.3-5.4-1.3s-5.4,1-5.4,1.3
			C286.2,362.6,287.8,363.6,291.6,363.6z"/>
		<path style="fill:none;" d="M291.6,364.7c-1.5,0-3-0.2-4.4-0.6c-0.4-0.1-0.7-0.3-1.1-0.4v2.3c0.4,0.3,1.8,1,5.5,1
			c3.3,0,5-0.8,5.4-1l0-2.2c-0.3,0.2-0.7,0.3-1,0.4C294.5,364.5,293.1,364.7,291.6,364.7z"/>
		<path style="fill:none;" d="M286.1,370.9v2.2c0.4,0.3,1.8,1,5.5,1c3.1,0,4.8-0.7,5.4-1v-2.2c-1,0.4-2.7,0.9-5.4,0.9
			C288.7,371.7,287,371.3,286.1,370.9z"/>
		<path style="fill:#2C5967;" d="M275.4,360.6l0.4,0l0.1-0.4c0.7-2.3,2.3-2.6,2.3-2.7l0.1,0c2.7-0.8,4.2,1.3,4.3,1.4l0.2,0.3
			l0.4-0.1c1.6-0.4,2.6,0,3.2,0.6c0.1-0.1,0.3-0.1,0.4-0.1c0.3-0.1,0.5-0.1,0.8-0.2c-0.8-1-2.1-1.9-4.4-1.5
			c-1.3-1.5-3.4-2.1-5.4-1.5c-0.3,0.1-2.2,0.6-3.1,3.1c-0.6,0.1-1.2,0.3-1.8,0.6c-1,0.6-2.3,1.7-2.7,4v0c0,0.1-0.3,2.2,1.1,3.9
			c0.8,1,2.1,1.6,3.7,1.7h9v-1.2h-8.9c-1.3-0.1-2.2-0.5-2.9-1.3c-1-1.2-0.8-2.8-0.8-3C272.2,360.9,275.3,360.6,275.4,360.6z"/>
		<path style="fill:#2C5967;" d="M282.5,346.4c-0.1-0.1-0.2-0.1-0.3-0.1c-0.2,0-0.4,0-0.6,0v0h0c0.1,0.1,0.3,0.3,0.4,0.4
			c0.1,0.2,0.3,0.4,0.4,0.6c0.2-0.1,0.4-0.4,0.3-0.6C282.7,346.6,282.6,346.5,282.5,346.4z"/>
		<path style="fill:#2C5967;" d="M298.5,360.8c0-0.1-0.1-0.1-0.1-0.2c0-0.1-0.1-0.2-0.1-0.2c-0.1-0.1-0.1-0.1-0.2-0.2l-0.2-0.2
			c-0.4-0.5-0.9-0.9-1.5-1.2c-0.1-0.1-0.3-0.1-0.4-0.2c-0.4-0.2-1-0.5-1.2-0.8c0.3,0,0.5-0.1,0.8-0.2l0.1,0c0.2,0,0.5-0.1,0.7-0.1
			c0.2,0,0.5-0.1,0.7-0.1l0.2,0c0.2,0,0.5-0.1,0.5-0.2c0-0.1,0-0.2-0.1-0.3c-0.7-0.7-1.5-1.3-2.4-1.8c-0.4-0.2-0.8-0.4-1.3-0.6
			c-0.1,0-0.2-0.1-0.4-0.1c-0.3-0.1-0.6-0.2-0.8-0.4c-0.2-0.2-0.3-0.4-0.4-0.7c0-0.1-0.1-0.2-0.1-0.3c-0.4-0.6-0.8-1.3-1.2-2.1
			c-0.1-0.2-0.2-0.3-0.3-0.5c-0.1-0.3-0.3-0.6-0.5-0.9c-1.3-1.8-3.1-3.3-5.1-4.4c-1-0.5-2.2-0.8-3.3-0.8c-0.1-0.1-0.3-0.1-0.4-0.2
			c-0.1-0.1-0.2-0.1-0.3-0.2c-0.6-0.3-2-1-2.9-0.7c-0.3,0.1-0.5,0.3-0.7,0.6c-0.3,0.7,0.3,1.4,0.7,1.8c0.1,0.1,0.2,0.2,0.2,0.2
			s0.1,0.1,0.2,0.2c0.2,0.2,0.4,0.5,0.6,0.7c0,0.1,0.1,0.2,0.1,0.3c0,0.1,0.1,0.2,0.1,0.3l0.2,0.4c0.2,0.4,0.4,0.9,0.6,1.3
			c0.2,0.3,0.3,0.5,0.5,0.8c0,0,0.1,0.1,0.1,0.1c0.1,0.1,0.2,0.2,0.2,0.3c0,0.1-0.1,0.2-0.1,0.3c0,0.1-0.1,0.1-0.1,0.2
			c-0.1,0.3-0.2,0.5-0.2,0.8c-0.2,1.1-0.3,2.6,0.5,3.8c0.5,0.7,1,0.9,1.6,0.7c0.5-0.2,0.6-0.6,0.6-1c0-0.2,0-0.3,0.1-0.5
			c0,0,0-0.1,0-0.1c0,0,0-0.1,0-0.1l0.1,0.2c0.2,0.3,0.3,0.5,0.4,0.8c0.3,0.5,0.7,1,1.2,1.3l0,0c0.5,0.4,1.1,0.9,1.7,1.1l0.1,0v-0.2
			h-0.1c-0.1-0.1-0.1-0.1-0.2-0.2c0,0-0.1,0-0.1-0.1c-0.3-0.2-0.5-0.5-0.7-0.7c-0.6-0.7-1.1-1.4-1.6-2.2c-0.2-0.3-0.4-0.7-0.6-1.1
			l0-0.1c0-0.1-0.1-0.1-0.1-0.2c0-0.1-0.1-0.2-0.2-0.3l0,0l0,0c-0.1,0.1-0.2,0.2-0.2,0.3c-0.2,0.2-0.3,0.4-0.4,0.6
			c-0.2,0.5-0.3,0.9-0.3,1.4c0,0.1,0,0.3-0.1,0.4h0c-0.4-0.1-0.5-0.4-0.7-0.7l0-0.1c-0.4-0.9-0.5-2.3-0.1-3.2c0,0,0-0.1,0.1-0.2
			c0.2-0.5,0.4-0.9,0.3-1.2c-0.1-0.1-0.2-0.3-0.3-0.4c-0.1-0.1-0.1-0.1-0.2-0.2c-0.2-0.2-0.4-0.5-0.5-0.8c-0.2-0.3-0.3-0.7-0.4-1
			c-0.1-0.4-0.3-0.8-0.5-1.1c-0.2-0.3-0.4-0.5-0.6-0.8l-0.1-0.2c-0.1-0.1-0.2-0.2-0.2-0.3c-0.3-0.3-0.7-0.7-0.6-1.1
			c0-0.1,0.1-0.2,0.2-0.2c0.5-0.2,1.5,0.3,2,0.7c0.1,0,0.1,0.1,0.2,0.1c0.2,0.1,0.3,0.2,0.5,0.3c0.3,0.1,0.5,0.2,0.8,0.1
			c0.1,0,0.3,0,0.4,0c0.4,0,0.8,0.1,1.2,0.3c0.8,0.3,1.6,0.6,2.4,1.1c1.4,1,2.7,2.2,3.6,3.7c0.1,0.1,0.2,0.3,0.2,0.5
			c0.1,0.1,0.1,0.2,0.2,0.4c0.2,0.3,0.3,0.6,0.5,1c0.2,0.3,0.3,0.6,0.5,0.8l0.1,0.2c0.3,0.5,0.6,1,0.9,1.5c0.2,0.2,0.6,0.3,1,0.4
			c0.2,0,0.3,0.1,0.4,0.1c0.6,0.2,1.2,0.5,1.8,0.8c0.3,0.2,0.6,0.3,0.9,0.5c0,0,0.1,0.1,0.2,0.1c0.2,0.1,0.3,0.2,0.5,0.4
			c-1.1,0-2,0.1-2.7,0.3c-0.1,0-0.1,0-0.2,0c-0.2,0-0.4,0.1-0.4,0.3v0l0,0c0.1,0.1,0.1,0.1,0.1,0.2c0,0.1,0.1,0.1,0.1,0.2
			c0.2,0.3,0.5,0.6,0.8,0.8c0.3,0.2,0.6,0.4,0.9,0.6c0.3,0.1,0.6,0.3,0.9,0.4c0.3,0.1,0.6,0.2,0.9,0.4c0.2,0.1,0.4,0.2,0.5,0.3
			c0.1,0.1,0.3,0.2,0.4,0.2c0.1,0,0.1,0.1,0.2,0.1c0.1,0.1,0.2,0.2,0.3,0.2l0.1,0L298.5,360.8L298.5,360.8z"/>
		<path style="fill:#2C5967;" d="M296,360.5c-1.4-0.4-2.9-0.6-4.4-0.6c-1.5,0-3,0.2-4.4,0.6c-1.8,0.5-2.1,1.3-2.1,1.8h0v11.2
			l0.1,0.2c0.1,0.2,1.4,1.5,6.4,1.5c4.4,0,6.2-1.3,6.3-1.4l0.2-0.2v-11.5h0C298,361.7,297.6,361,296,360.5z M291.6,361.1
			c3.7,0,5.4,1,5.4,1.3c0,0.3-1.7,1.3-5.4,1.3c-3.7,0-5.4-1-5.4-1.3C286.2,362,287.8,361.1,291.6,361.1z M297,373.1
			c-0.6,0.3-2.3,1-5.4,1c-3.7,0-5.1-0.7-5.5-1v-2.2c0.9,0.4,2.5,0.8,5.5,0.8c2.7,0,4.4-0.5,5.4-0.9V373.1z M297,369.6
			c-0.6,0.3-2.3,1-5.4,1c-3.7,0-5.1-0.7-5.5-1v-2.4c0.9,0.4,2.5,0.8,5.5,0.8c2.7,0,4.4-0.5,5.4-0.9V369.6z M297,365.9
			c-0.4,0.2-2.1,1-5.4,1c-3.7,0-5.1-0.7-5.5-1v-2.3c0.3,0.2,0.7,0.3,1.1,0.4c1.4,0.4,2.9,0.6,4.4,0.6c1.5,0,3-0.2,4.4-0.6
			c0.4-0.1,0.7-0.2,1-0.4L297,365.9z"/>
	</g>
</g>
<text transform="matrix(1 0 0 1 17.5806 111.1394)" style="fill:#312D2A; font-family:'OracleSans-SemiBold'; font-size:8px;">Subnet</text>
<text transform="matrix(1 0 0 1 17.4447 179.8487)" style="fill:#312D2A; font-family:'OracleSans-SemiBold'; font-size:8px;">Subnet</text>
<text transform="matrix(1 0 0 1 17.5249 261.1642)" style="fill:#312D2A; font-family:'OracleSans-SemiBold'; font-size:8px;">Subnet</text>
<text transform="matrix(1 0 0 1 17.6173 335.9544)" style="fill:#312D2A; font-family:'OracleSans-SemiBold'; font-size:8px;">Subnet</text>
<g>
	<g>
		<path style="fill:#FFFFFF;" d="M76.5,291.9c-1,0-1.8-0.8-1.8-1.8v-29.3c0-1,0.8-1.8,1.8-1.8h29.3c1,0,1.8,0.8,1.8,1.8v29.3
			c0,1-0.8,1.8-1.8,1.8H76.5z"/>
		<path style="fill:#FFFFFF;" d="M105.8,259.4c0.7,0,1.3,0.6,1.3,1.3v29.3c0,0.7-0.6,1.3-1.3,1.3H76.5c-0.7,0-1.3-0.6-1.3-1.3v-29.3
			c0-0.7,0.6-1.3,1.3-1.3H105.8 M105.8,258.4H76.5c-1.3,0-2.3,1-2.3,2.3v29.3c0,1.3,1,2.3,2.3,2.3h29.3c1.3,0,2.3-1,2.3-2.3v-29.3
			C108.1,259.5,107.1,258.4,105.8,258.4L105.8,258.4z"/>
	</g>
	<g>
		<path style="fill:#2C5967;" d="M105.8,259.4H76.5c-0.7,0-1.3,0.6-1.3,1.3v29.3c0,0.7,0.6,1.3,1.3,1.3h29.3c0.7,0,1.3-0.6,1.3-1.3
			v-29.3C107.1,260,106.5,259.4,105.8,259.4z M106,290.1c0,0.1-0.1,0.1-0.1,0.1H76.5c-0.1,0-0.1-0.1-0.1-0.1v-29.3
			c0-0.1,0.1-0.1,0.1-0.1h29.3c0.1,0,0.1,0.1,0.1,0.1V290.1z"/>
		<path style="fill:#2C5967;" d="M79.6,287h23.3v-7.1H79.6V287z M80.8,281h20.9v4.7H80.8V281z"/>
		<circle style="fill:#2C5967;" cx="99" cy="283.4" r="0.9"/>
		<path style="fill:#2C5967;" d="M86.7,263.9h-7.1v7.1h7.1V263.9z M85.5,269.8h-4.7V265h4.7V269.8z"/>
		<path style="fill:#2C5967;" d="M94.7,263.9h-7.1v7.1h7.1V263.9z M93.5,269.8h-4.7V265h4.7V269.8z"/>
		<path style="fill:#2C5967;" d="M86.7,271.9h-7.1v7.1h7.1V271.9z M85.5,277.8h-4.7V273h4.7V277.8z"/>
		<path style="fill:#2C5967;" d="M94.7,271.9h-7.1v7.1h7.1V271.9z M93.5,277.8h-4.7V273h4.7V277.8z"/>
		<path style="fill:#2C5967;" d="M102.7,263.9h-7.1v7.1h7.1V263.9z M101.5,269.8h-4.7V265h4.7V269.8z"/>
		<path style="fill:#2C5967;" d="M102.7,271.9h-7.1v7.1h7.1V271.9z M101.5,277.8h-4.7V273h4.7V277.8z"/>
	</g>
</g>
<g>
	<g>
		<path style="fill:#FFFFFF;" d="M173.5,291.9c-1,0-1.8-0.8-1.8-1.8v-29.3c0-1,0.8-1.8,1.8-1.8h29.3c1,0,1.8,0.8,1.8,1.8v29.3
			c0,1-0.8,1.8-1.8,1.8H173.5z"/>
		<path style="fill:#FFFFFF;" d="M202.8,259.4c0.7,0,1.3,0.6,1.3,1.3v29.3c0,0.7-0.6,1.3-1.3,1.3h-29.3c-0.7,0-1.3-0.6-1.3-1.3
			v-29.3c0-0.7,0.6-1.3,1.3-1.3H202.8 M202.8,258.4h-29.3c-1.3,0-2.3,1-2.3,2.3v29.3c0,1.3,1,2.3,2.3,2.3h29.3c1.3,0,2.3-1,2.3-2.3
			v-29.3C205.1,259.5,204.1,258.4,202.8,258.4L202.8,258.4z"/>
	</g>
	<g>
		<path style="fill:#2C5967;" d="M202.8,259.4h-29.3c-0.7,0-1.3,0.6-1.3,1.3v29.3c0,0.7,0.6,1.3,1.3,1.3h29.3c0.7,0,1.3-0.6,1.3-1.3
			v-29.3C204.1,260,203.5,259.4,202.8,259.4z M202.9,290.1c0,0.1-0.1,0.1-0.1,0.1h-29.3c-0.1,0-0.1-0.1-0.1-0.1v-29.3
			c0-0.1,0.1-0.1,0.1-0.1h29.3c0.1,0,0.1,0.1,0.1,0.1V290.1z"/>
		<path style="fill:#2C5967;" d="M176.6,287h23.3v-7.1h-23.3V287z M177.7,281h20.9v4.7h-20.9V281z"/>
		<circle style="fill:#2C5967;" cx="196" cy="283.4" r="0.9"/>
		<path style="fill:#2C5967;" d="M183.7,263.9h-7.1v7.1h7.1V263.9z M182.5,269.8h-4.7V265h4.7V269.8z"/>
		<path style="fill:#2C5967;" d="M191.7,263.9h-7.1v7.1h7.1V263.9z M190.5,269.8h-4.7V265h4.7V269.8z"/>
		<path style="fill:#2C5967;" d="M183.7,271.9h-7.1v7.1h7.1V271.9z M182.5,277.8h-4.7V273h4.7V277.8z"/>
		<path style="fill:#2C5967;" d="M191.7,271.9h-7.1v7.1h7.1V271.9z M190.5,277.8h-4.7V273h4.7V277.8z"/>
		<path style="fill:#2C5967;" d="M199.7,263.9h-7.1v7.1h7.1V263.9z M198.5,269.8h-4.7V265h4.7V269.8z"/>
		<path style="fill:#2C5967;" d="M199.7,271.9h-7.1v7.1h7.1V271.9z M198.5,277.8h-4.7V273h4.7V277.8z"/>
	</g>
</g>
</svg>
